<?xml version="1.0" encoding="UTF-8" standalone="no"?>
<!-- Created with Inkscape (http://www.inkscape.org/) -->

<svg
   xmlns:dc="http://purl.org/dc/elements/1.1/"
   xmlns:cc="http://creativecommons.org/ns#"
   xmlns:rdf="http://www.w3.org/1999/02/22-rdf-syntax-ns#"
   xmlns:svg="http://www.w3.org/2000/svg"
   xmlns="http://www.w3.org/2000/svg"
   xmlns:sodipodi="http://sodipodi.sourceforge.net/DTD/sodipodi-0.dtd"
   xmlns:inkscape="http://www.inkscape.org/namespaces/inkscape"
   width="119.69139mm"
   height="295.67059mm"
   viewBox="0 0 119.69139 295.67059"
   version="1.1"
   id="svg8"
   inkscape:version="0.92.3 (2405546, 2018-03-11)"
   sodipodi:docname="Man with pipe.svg">
  <title
     id="title36">Man with pipe</title>
  <defs
     id="defs2" />
  <sodipodi:namedview
     id="base"
     pagecolor="#ffffff"
     bordercolor="#666666"
     borderopacity="1.0"
     inkscape:pageopacity="0.0"
     inkscape:pageshadow="2"
     inkscape:zoom="0.25"
     inkscape:cx="97.121577"
     inkscape:cy="856.72579"
     inkscape:document-units="mm"
     inkscape:current-layer="layer2"
     showgrid="false"
     fit-margin-top="0"
     fit-margin-left="0"
     fit-margin-right="0"
     fit-margin-bottom="0"
     inkscape:window-width="1600"
     inkscape:window-height="845"
     inkscape:window-x="0"
     inkscape:window-y="27"
     inkscape:window-maximized="1" />
  <metadata
     id="metadata5">
    <rdf:RDF>
      <cc:Work
         rdf:about="">
        <dc:format>image/svg+xml</dc:format>
        <dc:type
           rdf:resource="http://purl.org/dc/dcmitype/StillImage" />
        <dc:title>Man with pipe</dc:title>
        <dc:date>2020</dc:date>
        <dc:creator>
          <cc:Agent>
            <dc:title>Doodleguy</dc:title>
          </cc:Agent>
        </dc:creator>
        <dc:rights>
          <cc:Agent>
            <dc:title>Public domain</dc:title>
          </cc:Agent>
        </dc:rights>
        <cc:license
           rdf:resource="http://creativecommons.org/publicdomain/zero/1.0/" />
      </cc:Work>
      <cc:License
         rdf:about="http://creativecommons.org/publicdomain/zero/1.0/">
        <cc:permits
           rdf:resource="http://creativecommons.org/ns#Reproduction" />
        <cc:permits
           rdf:resource="http://creativecommons.org/ns#Distribution" />
        <cc:permits
           rdf:resource="http://creativecommons.org/ns#DerivativeWorks" />
      </cc:License>
    </rdf:RDF>
  </metadata>
  <g
     inkscape:groupmode="layer"
     id="layer2"
     inkscape:label="bund">
    <path
       style="opacity:1;vector-effect:none;fill:#916f6f;fill-opacity:1;stroke:none;stroke-width:0.09984928;stroke-linecap:round;stroke-linejoin:round;stroke-miterlimit:4;stroke-dasharray:none;stroke-dashoffset:0;stroke-opacity:1"
       d="m 202.33986,3.8269708 c -2.91316,-0.038101 -5.8231,0.41218 -8.55424,1.4399734 -8.62399,3.0976742 -16.95564,6.9466478 -25.23838,10.8501948 -6.40647,3.159922 -13.16773,6.045807 -18.37082,11.089633 -4.67446,4.557814 -8.91775,9.542727 -12.99109,14.638865 -2.38308,2.94934 -4.23845,6.262673 -6.36808,9.390692 -2.95395,4.482197 -4.78867,9.591192 -6.2628,14.72095 -0.39248,1.771872 -1.01129,3.64512 -0.57179,5.463024 0.26016,0.907969 1.36114,0.720086 2.02398,0.449718 3.114,-1.078415 6.44819,-1.560506 9.35199,-3.195823 3.93926,-1.671573 8.13401,-2.6951 12.23192,-3.93429 6.15112,-1.699666 12.30095,-3.472153 18.56535,-4.701349 3.06004,-0.348514 6.10609,-0.861674 9.10965,-1.570248 4.25713,-1.015317 8.53077,-1.941263 12.88975,-2.399813 10.61468,-1.222609 21.30533,-1.737293 31.98168,-2.155611 8.51956,-0.146577 17.04463,-0.259478 25.56384,-0.05827 4.27755,0.238155 8.62518,0.313068 12.74749,1.60389 5.10467,1.111241 10.33129,1.591585 15.54133,1.873904 1.775,-0.01769 3.65914,0.292662 5.3575,-0.351356 0.85541,-0.317636 1.05325,-1.389896 0.58934,-2.113769 -1.29141,-2.72642 -3.88664,-4.791994 -4.50685,-7.831835 -1.48363,-3.81885 -3.78933,-7.249448 -5.98131,-10.688754 -2.94582,-4.360105 -5.92945,-8.755047 -9.63604,-12.513911 -4.4521,-4.021988 -9.5386,-7.275975 -14.69505,-10.31287 -2.94939,-1.80646 -6.16141,-3.113309 -9.45281,-4.149646 -4.83099,-1.6911312 -9.6611,-3.525968 -14.76274,-4.2194455 -6.1401,-0.8911192 -12.36008,-1.2778103 -18.56182,-1.3238567 z"
       id="path58"
       inkscape:connector-curvature="0"
       transform="scale(0.26458333)" />
    <path
       style="opacity:1;vector-effect:none;fill:#916f6f;fill-opacity:1;stroke:none;stroke-width:0.19969855;stroke-linecap:round;stroke-linejoin:round;stroke-miterlimit:4;stroke-dasharray:none;stroke-dashoffset:0;stroke-opacity:1"
       d="m 77.211573,753.10262 c -1.301048,0.36754 -1.025512,2.2293 -1.217118,3.28359 -0.138236,6.93646 1.509781,13.75812 2.458381,20.59541 2.77958,17.39044 5.384788,34.84018 9.637541,51.94564 1.96331,8.79765 3.334818,17.72843 5.792177,26.4163 5.086947,19.07335 10.683916,38.03728 17.479666,56.57764 1.59034,3.84299 2.87211,7.79169 4.08741,11.76165 2.16301,5.26321 4.33262,10.51597 6.01996,15.96028 3.13633,9.69167 6.19529,19.42511 8.67614,29.30626 0.7278,2.66844 -0.0788,6.1499 2.39011,8.07422 4.17199,3.23416 9.14021,5.29422 14.02114,7.21621 11.22147,4.07731 23.31831,4.6139 35.1401,4.35923 9.05744,-0.11103 18.20866,-0.0153 27.0872,-2.08026 3.42371,-0.8594 7.12634,-1.39024 10.10121,-3.40403 1.29277,-1.28075 -0.53559,-2.85058 -1.19385,-3.93767 -2.06815,-2.8657 -1.33699,-6.63516 -1.63041,-9.95903 -0.0391,-12.34144 0.20371,-24.70043 1.24646,-37.0002 0.17275,-2.63155 0.8147,-5.19 1.64812,-7.67756 0.77815,-5.54307 0.77118,-11.23223 2.49455,-16.61133 0.97857,-6.42854 -0.62304,-12.88822 -1.15022,-19.28705 -2.18284,-20.65441 -3.3032,-41.4646 -2.63784,-62.22738 0.0518,-2.37191 0.48827,-4.696 1.37799,-6.88941 0.16154,-1.31234 -1.16238,-2.19386 -1.20599,-3.51022 -1.79651,-9.39867 -2.0274,-19.03603 -2.42048,-28.58199 -0.19592,-4.52946 -0.14547,-9.0679 -0.26821,-13.59628 -11.51488,-0.32534 -23.14215,-0.23259 -34.69928,-0.42937 -6.62,-0.22269 -13.31025,0.0866 -19.87072,-0.89008 -3.70406,-1.32641 -7.72257,-0.14572 -11.54817,-0.63399 -6.42456,-1.0924 -12.89414,-1.95111 -19.40593,-2.34681 -8.0195,-0.63914 -16.30847,-0.93992 -23.74447,-4.31234 -6.155055,-2.01141 -12.449454,-3.65537 -18.34842,-6.37435 -3.39676,-1.46532 -6.733294,-3.15838 -9.587079,-5.53562 -0.223902,-0.11938 -0.471682,-0.21987 -0.729968,-0.21146 z"
       id="path60"
       inkscape:connector-curvature="0"
       transform="scale(0.26458333)" />
    <path
       style="opacity:1;vector-effect:none;fill:#916f6f;fill-opacity:1;stroke:none;stroke-width:0.2824164;stroke-linecap:round;stroke-linejoin:round;stroke-miterlimit:4;stroke-dasharray:none;stroke-dashoffset:0;stroke-opacity:1"
       d="m 340.60627,737.14122 c -11.99283,4.85939 -23.34731,11.20109 -35.22657,16.33342 -15.05827,5.34478 -30.78824,8.38927 -46.22177,12.41246 -7.31393,2.60736 -14.8923,4.37596 -22.60095,5.3203 -5.99733,0.95865 -12.18774,1.03119 -18.06542,2.56115 -0.49956,5.41563 0.29348,10.95443 0.56642,16.39586 0.5886,6.20262 1.51847,12.32385 1.5643,18.57608 1.27171,28.62936 1.03721,57.34765 3.68315,85.90174 4.29553,37.00149 7.22556,74.14486 11.35231,111.16337 1.38164,10.4236 2.24501,21.0073 5.10081,31.1599 0.39111,0.7149 0.71317,2.7143 1.8064,2.4395 9.29744,-8.3612 18.30268,-17.0685 28.0781,-24.8949 3.97261,-3.4307 8.68484,-5.8179 13.10637,-8.5646 7.07906,-3.8575 16.70509,-4.6066 23.16792,0.8885 6.53105,5.3423 12.54766,11.353 18.19038,17.6176 1.10726,0.8859 1.07946,2.9413 2.38517,3.4719 1.09132,-1.6805 0.24368,-4.0882 0.56746,-6.0085 0.38823,-21.3451 -0.057,-42.70399 0.64228,-64.04186 0.93114,-14.16066 4.30247,-28.06113 5.04091,-42.25428 1.29027,-19.94614 2.03259,-39.93527 3.57831,-59.86212 1.9061,-13.93262 1.64656,-28.05793 2.21641,-42.08911 0.48629,-22.8073 1.35087,-45.60611 1.80201,-68.413 -0.18195,-2.66258 0.32242,-5.57132 -0.55658,-8.09982 -0.0537,-0.0307 -0.11941,-0.0238 -0.17742,-0.0136 z"
       id="path62"
       inkscape:connector-curvature="0"
       transform="scale(0.26458333)" />
    <path
       style="opacity:1;vector-effect:none;fill:#916f6f;fill-opacity:1;stroke:none;stroke-width:0.00624058;stroke-linecap:round;stroke-linejoin:round;stroke-miterlimit:4;stroke-dasharray:none;stroke-dashoffset:0;stroke-opacity:1"
       d="m 218.46468,773.85043 c -0.073,0.004 -0.17121,0.0248 -0.18264,0.11191 -0.001,0.19854 0.0175,0.39737 0.0257,0.59591 0.009,0.0663 -0.004,0.13906 0.0231,0.20113 0.0379,0.0796 0.16453,0.0623 0.18421,-0.0221 0.0247,-0.25302 0.0418,-0.50627 0.0598,-0.75997 0.0111,-0.0657 -0.0412,-0.13299 -0.11022,-0.12688 z"
       id="path64"
       inkscape:connector-curvature="0"
       transform="scale(0.26458333)" />
    <path
       style="opacity:1;vector-effect:none;fill:#ff6600;fill-opacity:1;stroke:none;stroke-width:0.38551182;stroke-linecap:round;stroke-linejoin:round;stroke-miterlimit:4;stroke-dasharray:none;stroke-dashoffset:0;stroke-opacity:1"
       d="m 131.98672,201.79709 c -4.08559,1.01303 -6.01581,5.48365 -9.1071,7.98742 -14.22093,15.16309 -29.492989,29.42612 -42.475109,45.70012 -6.023585,9.17342 -14.332295,16.55979 -20.998385,25.25429 -11.957563,14.96968 -22.7083,30.87231 -33.630837,46.60502 -7.567415,11.20049 -15.640974,22.43518 -20.0844655,35.31448 -1.2749177,7.94359 0.2309112,16.57004 5.4215975,22.91351 10.993444,14.26997 24.793761,26.49361 40.648715,35.11969 16.977775,10.00312 32.7436,21.89311 47.85072,34.50787 9.093764,7.4072 20.349104,12.64826 32.168814,13.18939 7.21073,-0.11307 14.98776,-1.31498 20.32324,-6.63574 14.07585,-11.42734 23.17068,-27.66711 30.32813,-44.03222 2.33442,-5.27529 -1.82261,-10.41457 -5.20411,-14.09473 -11.73052,-10.94638 -24.09794,-21.35413 -37.72489,-29.87833 -8.14176,-5.85249 -15.78404,-12.38129 -24.15841,-17.91101 -4.77818,-3.8306 -10.40763,-7.31784 -13.49658,-12.7214 0.0182,-3.45116 3.32336,-5.96458 5.21875,-8.58203 2.58845,-2.65069 5.07929,-5.84258 8.29102,-7.62793 -3.06585,4.89294 -8.35713,8.72457 -9.62793,14.62988 0.67419,4.41967 5.3022,6.80405 8.38086,9.5 12.67105,9.55372 25.59018,18.7679 38.5039,27.98047 4.97279,4.34878 11.06873,7.27412 15.40723,12.37597 6.97773,6.96204 16.23919,12.763 18.91309,22.86719 0.88554,3.52191 0.28204,7.38315 2.36248,10.58309 2.56394,6.33279 4.18021,12.98126 5.27228,19.69426 0.8941,2.67696 3.96364,0.36055 5.47949,-0.34766 0.64603,-0.40997 3.27693,-1.22072 2.8877,0.2793 -9.79807,7.74768 -17.09796,18.05663 -26.14746,26.59277 -8.97965,7.59241 -18.57039,15.0326 -29.66895,19.18359 -7.81972,2.14329 -15.6879,-2.94669 -20.49827,-8.77399 -1.01225,-1.15681 -2.86064,-3.01311 -0.91872,-4.30608 1.39683,-2.38106 1.77809,-0.10225 2.73437,1.1123 1.49906,1.70509 2.88186,-1.23265 2.69043,-2.55762 0.36325,-2.11756 -0.92386,-4.32004 -3.28043,-4.18447 -9.23401,-2.18751 -18.63878,-5.50206 -25.5096,-12.37021 -6.042059,-5.03813 -12.612174,-9.43426 -18.169929,-15.05274 -2.0189,-1.32897 -3.67011,-4.1896 -6.256835,-4.26074 -3.95667,3.52752 -4.14953,9.48327 -5.501955,14.29199 -5.869995,29.1456 -6.997315,59.17957 -14.88961,87.91473 -2.15115,7.89177 -6.606036,15.00359 -7.681394,23.21882 -1.593582,8.89422 -4.412476,17.68776 -4.612588,26.76782 0.587819,5.76081 6.698843,8.62031 11.337892,10.76758 13.93345,5.78319 29.32991,5.4488 43.782969,9.23523 13.67787,2.53009 27.47856,4.40019 41.06813,7.42372 11.87854,2.2467 23.60908,5.39843 35.57566,7.11253 8.98765,-0.26927 18.52885,-0.68311 26.65039,-4.97461 5.3795,-3.14979 10.6861,-7.89065 11.21573,-14.51285 5.25038,-31.20534 5.3373,-63.03196 10.51057,-94.25362 3.84841,-30.12884 7.61601,-60.27639 10.88554,-90.47384 0.9259,-12.4909 1.26698,-25.17119 -0.9695,-37.54223 -1.24982,-11.0835 -1.66763,-22.25129 -3.33277,-33.28484 -0.99112,-12.73326 -1.02159,-25.53251 -2.13477,-38.25293 -7.4337,-8.37721 -15.77879,-16.23114 -21.46484,-25.95801 -2.52605,-5.14562 -2.28567,-11.10645 -0.43673,-16.4201 0.88997,-5.03829 -3.58254,-9.14327 -3.57792,-14.13654 -0.2682,-6.58135 1.59152,-14.04522 6.90723,-18.31738 2.53269,-0.9571 4.94139,-2.16684 7.13672,-3.7959 3.16076,-0.68757 6.22083,-3.33975 6.87402,-6.5664 -1.01547,-1.79311 -3.85484,-0.40847 -5.46973,-0.46485 -11.75325,2.42334 -23.92534,3.34209 -35.85839,1.86621 -5.55814,-2.04525 -11.24902,-3.64073 -16.66211,-6.08008 -9.74935,-3.16403 -17.99258,-9.59524 -26.04102,-15.74414 -2.8686,-2.0705 -5.40215,-5.73688 -9.23633,-5.87402 z"
       id="path66"
       inkscape:connector-curvature="0"
       transform="scale(0.26458333)" />
    <path
       style="opacity:1;vector-effect:none;fill:#ff6600;fill-opacity:1;stroke:none;stroke-width:0.00851869;stroke-linecap:round;stroke-linejoin:round;stroke-miterlimit:4;stroke-dasharray:none;stroke-dashoffset:0;stroke-opacity:1"
       d="m 224.45294,227.25819 c -0.0997,-0.01 -0.14923,0.13573 -0.0623,0.18729 0.21864,0.10958 0.42988,0.24435 0.58767,0.43424 0.0641,0.0796 0.20438,0.0105 0.17856,-0.0884 -0.0345,-0.18548 -0.11757,-0.39532 -0.3048,-0.47149 -0.12833,-0.0414 -0.26513,-0.0545 -0.39917,-0.0616 z"
       id="path68"
       inkscape:connector-curvature="0"
       transform="scale(0.26458333)" />
    <path
       style="opacity:1;vector-effect:none;fill:#ff6600;fill-opacity:1;stroke:none;stroke-width:0.00851869;stroke-linecap:round;stroke-linejoin:round;stroke-miterlimit:4;stroke-dasharray:none;stroke-dashoffset:0;stroke-opacity:1"
       d="m 131.26016,201.85656 c -0.54353,0.01 -1.11015,0.17921 -1.4933,0.58178 -0.12966,0.13711 -0.24545,0.29327 -0.32013,0.46682 -0.0183,0.0974 0.10588,0.15454 0.17542,0.0919 0.37616,-0.24869 0.76402,-0.48179 1.17215,-0.66586 0.23219,-0.10926 0.47438,-0.19894 0.71127,-0.2928 0.093,-0.042 0.0535,-0.19032 -0.0465,-0.18717 -0.0663,0.002 -0.13258,0.004 -0.19887,0.005 z"
       id="path70"
       inkscape:connector-curvature="0"
       transform="scale(0.26458333)" />
    <path
       style="opacity:1;vector-effect:none;fill:#ff6600;fill-opacity:1;stroke:none;stroke-width:0.27259803;stroke-linecap:round;stroke-linejoin:round;stroke-miterlimit:4;stroke-dasharray:none;stroke-dashoffset:0;stroke-opacity:1"
       d="m 295.63003,160.88515 c -2.06771,1.77427 -2.85705,4.70475 -4.25814,6.99802 -6.87532,14.08298 -14.52538,28.41116 -26.86424,38.5066 -6.02428,5.25582 -12.50582,10.0412 -19.63532,13.69071 -1.38041,0.51704 -1.53053,2.5725 0.0235,2.96585 3.1111,1.16665 6.68863,0.72849 9.42128,-1.18116 2.14553,-1.37555 4.56202,-2.55114 7.17502,-1.95456 5.67609,0.61323 10.18372,4.7051 14.22914,8.3817 3.36497,3.23969 7.045,6.78462 7.63316,11.68384 2.89572,8.99655 8.08631,17.03355 11.43564,25.8559 2.13416,4.5004 3.23179,9.59111 6.18817,13.653 2.80458,2.59963 7.29498,-0.77615 10.10527,1.81541 8.15584,7.79173 15.40916,16.47386 23.26696,24.56281 12.24252,12.74698 23.10576,26.71554 34.78626,39.96662 0.92587,1.38401 2.767,2.90564 2.95615,4.42592 -4.39821,-2.72346 -7.6631,-6.97913 -11.07202,-10.81515 -6.04547,-7.64548 -11.80954,-15.53272 -18.5436,-22.6067 -10.04453,-11.00075 -20.53208,-21.64975 -29.76547,-33.33691 -8.85273,0.46036 -18.09386,0.85711 -26.04871,5.24012 -5.38588,2.50845 -10.54803,5.65936 -14.44284,10.22986 -7.12806,7.50281 -13.35756,15.87908 -18.70516,24.73222 -0.94371,2.09091 -2.92848,4.53862 -1.94869,6.91846 3.45971,1.96735 5.98152,5.30827 8.96826,7.92159 10.46909,10.24354 20.77178,20.66049 30.35253,31.73923 8.70132,9.01349 18.04221,17.42111 27.77701,25.30462 9.64952,7.42075 19.89069,14.13863 30.68323,19.77599 6.23511,2.67365 11.9138,6.51438 18.40184,8.62427 9.0155,3.22419 18.41929,6.14998 28.11249,5.65825 11.97457,-0.24547 24.44813,0.3336 35.8028,-4.11351 7.86074,-3.05748 13.20432,-10.69934 15.32019,-18.6458 1.45439,-7.82104 0.53613,-15.97918 -1.49235,-23.61755 -3.22939,-10.10152 -8.48145,-19.41609 -13.46639,-28.7301 -13.21411,-23.56818 -28.88595,-45.62902 -43.77719,-68.13134 -6.31404,-9.24649 -9.55415,-20.40708 -17.30636,-28.6867 -8.66523,-10.58868 -15.34996,-22.60776 -22.75419,-34.07356 -6.65112,-10.98472 -13.9674,-21.6271 -22.8812,-30.91659 -9.15889,-9.99376 -18.94089,-19.43493 -27.4162,-30.02802 -0.69655,-0.59161 -1.32198,-1.634 -2.26081,-1.81334 z"
       id="path72"
       inkscape:connector-curvature="0"
       transform="scale(0.26458333)" />
    <path
       style="opacity:1;vector-effect:none;fill:#ff6600;fill-opacity:1;stroke:none;stroke-width:0.27259803;stroke-linecap:round;stroke-linejoin:round;stroke-miterlimit:4;stroke-dasharray:none;stroke-dashoffset:0;stroke-opacity:1"
       d="m 233.64147,320.79646 c -1.13489,0.30001 0.26666,1.86226 -0.0525,2.56464 1.43854,15.57467 1.49835,31.26979 3.64127,46.78796 2.06401,14.95608 3.99263,29.94762 4.68378,45.04161 1.19456,20.89519 2.71511,41.79066 5.4406,62.54653 1.60053,31.44428 1.26332,63.04873 5.01418,94.35797 2.22128,15.74061 4.08496,31.57174 7.48255,47.11347 1.25745,5.46502 3.29743,11.60928 8.71454,14.25883 4.77975,2.86107 10.13479,4.81462 15.75453,4.90625 11.56158,0.43307 23.0356,2.04816 34.56103,2.93087 11.26545,0.56087 22.62124,-0.79114 33.32831,-4.39297 6.33445,-2.18009 12.82397,-3.88299 19.13245,-6.1179 5.41622,-2.29355 10.23908,-6.7863 11.77015,-12.61053 3.14919,-10.90697 3.92529,-22.32567 5.04512,-33.57456 1.28315,-21.25487 0.68815,-42.56852 0.75471,-63.84938 -0.1823,-29.10147 -0.23693,-58.26862 -0.57387,-87.32842 -10.29004,-2.69348 -20.23704,-6.47695 -30.20948,-10.1322 -2.2712,-0.39205 -4.30193,-1.41655 -5.68517,-3.31664 -3.76428,-3.38302 -9.07955,-4.38597 -12.81769,-7.8569 -6.5163,-5.10357 -14.08845,-8.64644 -20.54371,-13.8503 -12.57778,-9.47798 -22.97893,-21.43343 -33.95707,-32.64064 -11.57677,-12.05437 -22.40244,-25.01549 -35.92488,-35.00484 -4.84475,-3.49712 -9.51983,-7.52184 -15.10519,-9.7783 -0.14814,-0.0347 -0.30095,-0.0604 -0.45368,-0.0545 z"
       id="path74"
       inkscape:connector-curvature="0"
       transform="scale(0.26458333)" />
    <path
       style="opacity:1;vector-effect:none;fill:#ffaaaa;fill-opacity:1;stroke:none;stroke-width:0.19275591;stroke-linecap:round;stroke-linejoin:round;stroke-miterlimit:4;stroke-dasharray:none;stroke-dashoffset:0;stroke-opacity:1"
       d="m 221.1641,56.060889 c -12.69086,0.120171 -25.41257,0.81499 -37.94873,2.865235 -1.61863,0.198325 -3.98547,1.251428 -3.5039,3.259277 0.64827,2.035909 2.91119,3.073866 3.33691,5.256836 1.59572,5.895688 -1.35889,12.098572 -5.55322,16.207032 -4.06614,4.056338 -9.35267,6.991733 -15.13282,7.498535 -4.37983,0.42423 -9.08576,0.59065 -13.16845,-1.288087 -5.18035,-3.037883 -7.72148,-9.236416 -8.00971,-15.039254 -0.29131,-1.210175 0.0763,-2.929069 -0.96978,-3.792777 -2.15555,0.08794 -4.02629,1.541662 -6.01172,2.276367 -2.62776,1.296832 -5.31484,2.522203 -8.01123,3.622559 -3.35583,2.717022 -5.28311,6.762937 -7.33034,10.474142 -4.0321,7.683938 -6.18995,16.181426 -8.04466,24.607396 -2.58987,12.97572 -1.92857,26.3396 -0.56039,39.41812 1.30001,11.57812 5.19752,23.07245 12.45834,32.29673 6.15217,7.8992 12.66863,15.64377 20.41114,22.04152 7.39458,5.56107 15.20742,10.84303 24.0503,13.80338 8.84862,3.66897 17.98412,6.84633 27.47557,8.33967 7.38133,0.75893 14.77233,-0.61794 22.04834,-1.72266 1.73151,-0.49326 4.10705,-0.46158 5.16406,-2.14502 0.34112,-2.00319 -1.69298,-3.34316 -2.60374,-4.89553 -6.7751,-8.67229 -14.97101,-16.58688 -19.30886,-26.88132 -1.92333,-4.40394 -0.45817,-9.23037 0.0415,-13.77058 0.87545,-4.4413 1.23812,-9.25549 3.80196,-13.12385 1.16714,-0.86049 1.82229,-3.46257 -0.32831,-3.34385 -2.16243,0.43867 -3.51122,2.55783 -4.80615,4.16406 -1.79832,2.42631 -2.58661,5.4257 -4.3042,7.87402 -0.58416,5.90564 0.17222,11.91808 -0.53028,17.81055 -0.0223,0.64492 -0.7244,2.1062 -1.41845,1.19385 -2.33681,-2.59567 -2.09625,-6.42134 -2.14972,-9.68934 0.27788,-5.53626 1.07942,-11.38188 4.31319,-16.05177 0.34437,-0.85016 1.42367,-2.36112 0.31065,-3.04063 -2.00779,-0.23491 -3.60241,1.57866 -4.8086,2.96582 -4.05762,5.60356 -4.28927,12.87476 -4.35595,19.53174 -0.17553,1.06135 0.0796,2.52205 -0.74219,3.34033 -2.17102,-1.01649 -2.81147,-3.7575 -2.87601,-5.96341 -0.33024,-6.07061 1.56112,-12.20968 5.30473,-17.01833 2.36276,-3.32221 5.14422,-6.38597 8.49706,-8.72871 0.85305,-0.91231 -0.42001,-2.1446 -0.70312,-3.05469 -2.82805,-4.67747 -5.7429,-9.34583 -7.50147,-14.5625 -0.74571,-2.4387 -1.83478,-5.08539 -1.25977,-7.64746 0.34499,-0.40276 0.78952,-1.70205 1.4419,-1.27148 1.51296,2.3533 1.91743,5.24955 3.38232,7.65625 1.95406,3.70582 4.16424,7.28257 5.92237,11.07177 2.4048,3.08004 5.60322,5.64307 9.18701,7.2085 5.40365,1.66819 11.01778,2.77139 16.65918,3.19189 5.24527,0.22503 10.82196,-0.40069 15.25097,-3.44384 1.89461,-0.97536 4.5173,-0.69506 5.73487,-2.77832 2.11947,-3.28843 3.90743,-6.85255 5.12451,-10.57422 1.25042,-6.58959 0.69369,-13.3596 0.62268,-20.02427 0.15394,-7.38645 -2.12726,-14.55884 -5.24963,-21.17125 -5.06461,-11.129991 -12.83085,-20.709891 -20.93314,-29.756438 -1.83514,-2.372562 -4.16301,-4.533308 -5.32712,-7.331247 0.50611,-0.184211 1.26277,0.758949 1.76672,1.050415 7.90635,6.977772 14.93555,14.936802 21.17615,23.430054 8.07636,11.013526 13.57171,24.273636 13.65967,38.051576 0.025,4.93505 0.31331,10.01441 -1.57178,14.68573 -1.23816,4.33173 -3.35547,8.44268 -3.98388,12.92871 -0.40166,1.24347 1.12657,2.41909 2.14355,1.54248 1.28076,-0.74605 1.63962,-2.21864 2.29883,-3.40039 1.08558,-0.47471 2.09892,0.83834 3.01765,1.26376 7.03066,4.62179 12.32677,12.11536 13.60979,20.49161 0.46558,2.91713 0.0217,6.05258 -1.98242,8.35861 -1.4006,1.66873 -2.35361,3.60515 -2.99951,5.67264 -0.40024,1.01155 -1.30125,-0.1938 -1.36914,-0.78125 -1.0489,-4.06036 -1.3148,-8.3089 -2.7151,-12.29537 -1.1765,-4.13348 -3.22796,-7.91976 -5.3684,-11.61381 -1.07504,-1.77666 -0.80129,-3.85442 -1.22021,-5.77881 -0.19162,-1.07648 -1.50565,-0.91369 -1.91407,-0.0781 -1.11446,1.42264 -0.47327,3.41467 -0.64599,5.05957 2.93477,6.11743 6.58576,12.15537 7.5581,18.97656 0.33531,1.50685 -0.53538,3.58633 -2.35107,3.40674 -1.13132,0.0781 -1.18583,-1.40259 -2.07129,-1.6294 -1.00927,0.80406 -0.12462,2.50397 -0.97852,3.48975 -0.60945,1.03593 -1.69998,-0.30157 -2.20996,-0.7544 -0.92282,-0.73068 -1.3898,-1.98543 -0.68652,-3.03515 1.84089,-3.07012 -0.20066,-6.52894 -1.4237,-9.41038 -2.13676,-4.17259 -3.86986,-8.64971 -6.78235,-12.36159 -1.58878,-1.96993 -5.1554,-1.39924 -6.31055,0.7163 -0.21456,2.54902 1.62873,4.74064 2.9339,6.76123 2.58154,3.69214 6.66175,6.43249 7.804,11.00812 0.28682,1.30225 1.10171,2.9424 0.32362,4.1789 -1.65588,0.76433 -0.91042,3.10921 -1.79492,4.43359 -0.41744,1.19323 -2.27678,1.47285 -2.67676,0.1084 -1.77103,-4.89704 -0.53046,-10.47929 -2.76416,-15.25781 -0.58294,-0.76428 -1.88254,-1.68691 -2.82177,-1.11182 -0.41828,1.13758 0.72727,2.29143 0.98583,3.37061 0.51112,1.44445 1.54986,3.57227 0.19532,4.86084 -1.04679,0.7102 -1.98184,-0.61976 -2.05827,-1.57375 -0.40261,-1.14356 -0.3866,-3.26798 -1.9554,-3.41942 -1.19207,0.27501 -0.59952,1.95659 -0.58887,2.79688 0.34993,3.19988 1.5903,6.34058 1.44385,9.56396 0.0673,0.76853 -0.82504,1.87665 -1.4668,0.97168 -1.90766,-3.12802 -2.11652,-6.98829 -2.90625,-10.5 -0.87787,-4.02561 -0.94833,-8.29721 -2.54639,-12.12988 -0.42077,-0.86118 -1.78929,-2.16114 -2.54541,-0.92676 -0.86664,2.04186 -0.47697,4.41465 -0.58008,6.5918 -0.0851,4.73811 0.9361,9.40524 1.12452,14.10937 0.0653,0.71321 -0.24345,2.47501 -1.30372,1.99854 -1.80147,-2.06663 -2.04428,-5.02993 -2.6582,-7.59864 -1.02126,-4.83067 -0.9066,-9.90214 -2.49072,-14.60644 -0.60862,-1.9277 -2.84497,-2.22736 -4.56934,-1.99268 -0.88776,-0.10142 -2.21155,0.29349 -1.82666,1.45069 1.54527,5.86793 3.59631,11.73762 3.85303,17.8374 -1e-5,1.18108 -1.02396,3.17814 -2.44092,2.40527 -1.1764,-2.09758 -0.86682,-4.7181 -1.22558,-7.0581 -0.39176,-3.95595 -0.46336,-8.27959 -2.68457,-11.72217 -0.39717,-0.79245 -2.0946,-1.08258 -1.99512,0.14307 0.30386,5.03001 0.83812,10.05135 1.01367,15.09228 0.042,3.63654 1.24269,7.16391 3.37548,10.10526 5.11771,7.81569 12.05345,14.2195 18.95753,20.42648 2.24076,1.70024 4.27311,4.09084 7.13672,4.66846 3.63785,0.14166 6.71529,-2.28192 9.71386,-4.01905 8.2432,-5.48115 15.83727,-12.01205 22.3335,-19.48779 5.70048,-7.48539 10.08187,-15.90409 13.89305,-24.48119 3.22684,-7.41238 5.78787,-15.18977 6.53492,-23.2785 0.465,-3.32155 1.3973,-6.58106 1.18531,-9.97908 0.0275,-7.73641 0.0932,-15.48937 -0.029,-23.2157 -2.84411,-11.94967 -3.41705,-24.528306 -8.3894,-35.90634 -2.078,-4.891772 -3.70011,-10.055488 -6.54355,-14.573759 -1.90474,-2.132974 -5.07478,-2.110964 -7.62684,-2.932277 -3.3172,-0.64675 -6.72746,-1.525176 -10.11779,-1.242528 -0.85043,0.812214 0.20928,2.123776 0.52832,2.963867 1.93032,2.798281 2.87245,6.376343 1.86719,9.703125 -1.41021,5.251345 -6.69747,9.233924 -12.18962,8.637626 -3.99008,-0.12465 -7.6592,-2.077887 -10.50344,-4.817771 -2.81413,-2.728886 -6.39993,-5.309402 -7.30157,-9.356476 -0.85068,-3.613501 -0.77849,-7.465922 -1.66358,-11.015625 -3.55761,0.05518 -7.11523,0.110352 -10.67285,0.165527 z m -31.34375,98.589841 c 0.70931,-0.15066 1.22058,0.63196 0.54785,1.09131 -2.31095,2.14118 -5.51719,3.09664 -7.60351,5.5376 -3.49614,3.40022 -3.98897,8.56012 -4.78467,13.11035 -0.53319,4.84597 -0.26931,9.7366 -0.3291,14.6001 0.4554,1.55747 1.8985,3.35854 1.09277,5.02099 -0.75594,1.11796 -1.63031,-0.5758 -2.06152,-1.15478 -1.92399,-3.32502 -3.08908,-7.14048 -2.812,-11.00732 -0.29502,-6.45553 1.53818,-12.74046 3.57421,-18.79542 1.50904,-3.52102 5.14668,-5.4988 8.38183,-7.1831 1.2666,-0.55877 2.59024,-1.15448 3.99414,-1.21973 z m 49.73389,29.52832 c 0.70065,0.5172 -0.19302,2.14713 -0.94043,1.63379 -0.24103,-0.56276 0.39054,-1.50965 0.94043,-1.63379 z"
       id="path76"
       inkscape:connector-curvature="0"
       transform="scale(0.26458333)" />
    <path
       style="opacity:1;vector-effect:none;fill:#ffaaaa;fill-opacity:1;stroke:none;stroke-width:0.03407475;stroke-linecap:round;stroke-linejoin:round;stroke-miterlimit:4;stroke-dasharray:none;stroke-dashoffset:0;stroke-opacity:1"
       d="m 255.28037,180.69227 c -0.31471,0.11279 -0.29446,0.53789 -0.35096,0.81069 -0.0695,0.6817 -0.11947,1.41894 0.17677,2.05641 0.12835,0.2776 0.51579,0.20544 0.65221,-0.0266 0.4208,-0.65722 0.28996,-1.50888 0.0469,-2.20858 -0.10359,-0.23757 -0.22794,-0.59789 -0.52489,-0.63193 z"
       id="path78"
       inkscape:connector-curvature="0"
       transform="scale(0.26458333)" />
    <path
       style="opacity:1;vector-effect:none;fill:#ffaaaa;fill-opacity:1;stroke:none;stroke-width:0.03407475;stroke-linecap:round;stroke-linejoin:round;stroke-miterlimit:4;stroke-dasharray:none;stroke-dashoffset:0;stroke-opacity:1"
       d="m 261.408,164.7481 c -0.96376,0.033 -1.94954,0.0317 -2.88445,0.294 -0.2216,0.0406 -0.36349,0.27194 -0.25593,0.47931 0.73089,1.83146 1.61385,3.59846 2.44697,5.38489 1.99434,4.13968 4.01046,8.26924 6.03822,12.39248 0.0898,0.17135 0.29099,0.0264 0.24287,-0.13183 0.14006,-2.02662 0.34335,-4.05079 0.39818,-6.08211 -2.5e-4,-3.13498 -0.18394,-6.33486 -1.23684,-9.31478 -0.27313,-0.67325 -0.51006,-1.39334 -0.98786,-1.95388 -0.42434,-0.51011 -1.02473,-0.85509 -1.68236,-0.95162 -0.68577,-0.11389 -1.38543,-0.1183 -2.0788,-0.11646 z m 0.74569,2.26504 c 0.49079,0.32005 0.88059,0.77025 1.24952,1.22147 0.22431,0.36366 0.49689,0.81532 0.3488,1.25306 -0.0845,0.16808 -0.27146,0.12513 -0.39144,0.0184 -0.54466,-0.43673 -0.7734,-1.14064 -1.01219,-1.76859 -0.0707,-0.23392 -0.18264,-0.49579 -0.19469,-0.72432 z"
       id="path80"
       inkscape:connector-curvature="0"
       transform="scale(0.26458333)" />
    <path
       style="opacity:1;vector-effect:none;fill:#ffaaaa;fill-opacity:1;stroke:none;stroke-width:0.13629901;stroke-linecap:round;stroke-linejoin:round;stroke-miterlimit:4;stroke-dasharray:none;stroke-dashoffset:0;stroke-opacity:1"
       d="m 227.42537,232.90659 c -1.37607,0.19989 -1.63349,1.93075 -1.87377,3.03869 -0.66863,3.82636 -0.0515,7.74331 1.26886,11.36274 3.11067,8.71721 8.73003,16.39618 15.58826,22.5528 1.45723,1.387 2.99884,2.71314 4.21039,4.33107 -1.66735,0.21453 -2.98247,-1.2256 -4.24167,-2.07907 -6.17708,-5.20466 -11.53736,-11.40493 -15.89531,-18.20431 -2.11402,-3.24549 -3.32939,-6.97085 -3.85378,-10.79188 -0.48518,-2.2248 -0.44593,-4.75028 -1.80345,-6.67865 -1.05709,-1.01154 -2.50808,0.2571 -2.81082,1.36553 -1.22163,3.6365 -0.65597,7.58746 3.5e-4,11.28298 0.80253,4.13319 2.34939,8.18746 5.09752,11.43116 5.70838,7.30951 12.67683,13.51337 18.77285,20.46426 0.5327,0.57499 -0.51348,0.22262 -0.70434,0.0694 -3.90672,-2.39541 -7.15827,-5.69665 -10.55101,-8.74423 -6.76647,-6.42329 -13.1368,-13.68358 -16.68192,-22.42406 -0.85469,-1.96153 -0.85348,-4.11096 -1.29199,-6.16267 -0.30281,-1.01352 -1.63637,-0.83993 -2.13928,-0.0922 -2.42717,2.98302 -2.51885,7.10687 -2.35506,10.77337 0.43955,7.18076 2.70672,14.21996 6.55178,20.30204 2.03595,3.45374 4.47329,6.77258 7.8531,9.02321 2.75409,2.1019 5.91695,3.78447 8.22737,6.39055 0.34723,0.27933 0.48247,1.09395 -0.14329,0.95811 -2.81955,-0.60063 -5.20891,-2.40934 -7.57068,-3.97003 -4.08205,-2.8566 -7.88536,-6.24693 -10.49645,-10.53705 -0.38747,-0.50174 -1.09065,-1.68042 -1.81161,-1.00783 -1.21948,1.37909 -1.22609,3.28234 -1.11902,5.01465 0.16067,2.75887 1.50229,5.29598 2.69098,7.73665 4.24803,7.65934 10.63807,13.79497 16.49102,20.20547 5.68229,5.96903 11.2579,12.0849 17.52506,17.45255 0.34719,0.31517 0.86795,0.70546 1.21362,0.15641 2.94874,-3.29789 5.12408,-7.19474 7.84975,-10.67107 4.42222,-5.84658 8.76071,-11.79811 13.84738,-17.09238 6.66441,-6.73664 14.66511,-12.05435 23.22392,-16.07035 1.4031,-0.86558 3.35104,-1.41971 4.03608,-3.06554 0.10023,-1.44863 -0.85875,-2.76719 -1.215,-4.13492 -3.513,-8.91156 -7.7038,-17.55501 -12.31567,-25.94681 -0.25737,-0.57711 -0.93611,-1.46062 -1.60169,-0.81829 -1.93166,1.89792 -2.80584,4.57862 -4.30335,6.79612 -2.39534,3.83733 -4.78073,7.83707 -8.24262,10.80766 -1.06919,0.66327 -2.32485,1.35789 -2.52632,2.74246 -0.39662,1.09074 0.0518,2.67298 -1.02371,3.41366 -2.21242,0.57979 -4.16906,-1.13774 -6.1656,-1.81556 -2.19948,-1.036 -4.80471,-1.31657 -6.57337,-3.1297 -5.68212,-5.46314 -9.98875,-12.16385 -14.34067,-18.69138 -3.16489,-4.76524 -5.76786,-9.89601 -9.11643,-14.53643 -0.41844,-0.50247 -0.98659,-1.00974 -1.68041,-1.00714 z"
       id="path82"
       inkscape:connector-curvature="0"
       transform="scale(0.26458333)" />
    <path
       style="opacity:1;vector-effect:none;fill:#ffaaaa;fill-opacity:1;stroke:none;stroke-width:0.09637795;stroke-linecap:round;stroke-linejoin:round;stroke-miterlimit:4;stroke-dasharray:none;stroke-dashoffset:0;stroke-opacity:1"
       d="m 185.27608,423.62321 c -0.94658,0.30908 -1.39925,1.36573 -1.97876,2.10059 -2.76766,4.35151 -4.87138,9.08954 -7.71289,13.39917 -5.77968,8.91768 -12.83029,17.08025 -21.10278,23.77661 -4.60769,3.63503 -9.67842,7.00567 -15.49048,8.28906 -1.62457,0.41247 -3.26356,0.76627 -4.88599,1.18725 -0.15692,1.71917 0.015,3.54766 -0.0142,5.30906 0.10654,1.93385 -0.13765,3.94085 0.4248,5.81863 0.23987,0.908 1.07135,1.4149 1.94702,1.5647 2.50957,0.67176 5.16703,0.50344 7.71045,0.13061 4.19548,-0.93374 8.14865,-2.6866 12.17973,-4.13781 3.53353,-1.30419 7.02984,-2.83993 10.00191,-5.1969 8.06358,-5.95573 14.8502,-13.39482 21.83117,-20.53481 0.64055,-0.69293 1.35086,-1.34075 1.95008,-2.06041 -0.11507,-4.70523 0.11178,-9.43095 -0.36035,-14.1206 -0.66627,-4.76867 -1.46285,-9.59253 -3.29968,-14.06965 -0.28763,-0.51168 -0.54078,-1.35172 -1.20008,-1.4555 z"
       id="path84"
       inkscape:connector-curvature="0"
       transform="scale(0.26458333)" />
    <path
       style="opacity:1;vector-effect:none;fill:#6c5353;fill-opacity:1;stroke:none;stroke-width:0.06814951;stroke-linecap:round;stroke-linejoin:round;stroke-miterlimit:4;stroke-dasharray:none;stroke-dashoffset:0;stroke-opacity:1"
       d="m 123.00693,969.52467 c -1.10462,-0.0213 -2.24032,0.50538 -2.74332,1.5247 -0.83871,1.5421 -0.63494,3.37497 -0.55484,5.06058 0.52752,4.34402 1.91492,8.52622 3.32883,12.64867 1.65242,4.57664 3.97806,9.1446 7.85834,12.22778 1.80288,1.3273 4.0746,1.6999 6.11577,2.5157 3.752,1.334 7.45206,2.8675 11.3634,3.6886 8.47812,1.8874 17.17135,2.6011 25.83617,2.9157 8.89623,0.2596 17.80006,-0.083 26.67986,-0.6233 3.63718,-0.2919 7.31231,-0.408 10.89038,-1.1755 2.57413,-0.5589 5.2014,-1.8724 6.48216,-4.2859 1.51463,-2.8374 1.77377,-6.12018 2.12546,-9.25974 0.11133,-1.65866 0.37356,-3.35266 0.0684,-5.00275 -0.27982,-0.87978 -1.3683,-0.87893 -2.12857,-0.86006 -3.51433,0.20719 -6.95041,1.05837 -10.38636,1.77368 -5.30203,1.23549 -10.72741,1.83931 -16.16894,1.96469 -9.69004,0.22239 -19.4259,0.19763 -29.05357,-0.99211 -7.93476,-0.9784 -15.79893,-3.02918 -22.935,-6.69378 -4.38088,-2.2707 -8.62837,-4.84246 -12.53871,-7.85262 -1.07104,-0.88072 -2.42114,-1.88779 -2.40795,-3.42699 -0.0343,-1.15586 0.54798,-2.37502 0.0471,-3.49014 -0.37884,-0.62805 -1.22965,-0.64713 -1.8786,-0.65721 z"
       id="path86"
       inkscape:connector-curvature="0"
       transform="scale(0.26458333)" />
    <path
       style="opacity:1;vector-effect:none;fill:#552200;fill-opacity:1;stroke:none;stroke-width:0.04818898;stroke-linecap:round;stroke-linejoin:round;stroke-miterlimit:4;stroke-dasharray:none;stroke-dashoffset:0;stroke-opacity:1"
       d="m 261.38109,223.61122 c -1.51754,-0.0656 -3.00137,0.9692 -3.47718,2.41138 -0.43999,1.26641 -0.38397,2.65392 -0.18481,3.96167 0.67179,3.63026 2.56438,6.91568 4.80505,9.80171 1.0509,1.3768 2.25821,2.65697 3.74256,3.57145 2.75885,1.73162 5.93611,2.80798 9.17858,3.11414 1.1111,0.0302 2.23367,0.0626 3.33826,-0.072 0.71934,-0.16215 1.08691,-0.88608 1.16394,-1.56445 0.2179,-1.69112 0.1606,-3.40702 0.0874,-5.10669 -0.0826,-1.75169 -0.533,-3.53102 -1.61047,-4.94527 -1.4054,-1.86164 -3.14053,-3.44638 -4.88888,-4.97881 -2.73879,-2.30463 -5.72257,-4.41847 -9.09998,-5.67206 -0.94012,-0.34945 -1.93008,-0.593 -2.94034,-0.5211 l -0.0625,3e-5 z"
       id="path88"
       inkscape:connector-curvature="0"
       transform="scale(0.26458333)" />
    <path
       style="opacity:1;vector-effect:none;fill:#ffffff;fill-opacity:1;stroke:none;stroke-width:0.04818898;stroke-linecap:round;stroke-linejoin:round;stroke-miterlimit:4;stroke-dasharray:none;stroke-dashoffset:0;stroke-opacity:1"
       d="m 166.78997,62.006611 c -4.5429,0.953025 -9.12958,1.728752 -13.60638,2.971135 -2.27759,0.674522 -4.64806,1.383644 -6.51129,2.921931 -1.55964,1.274691 -2.24261,3.330512 -2.27051,5.293213 -0.0686,1.936533 -0.043,3.906804 0.52185,5.777954 0.75784,2.862403 2.54936,5.456825 5.05619,7.057064 1.86165,1.173389 4.01103,1.859022 6.18099,2.158268 0.48076,-0.112854 0.72829,-0.631037 1.00965,-0.991821 1.21159,-1.845822 1.80414,-4.018448 3.02224,-5.859165 1.77887,-2.804948 4.11747,-5.213837 6.56338,-7.44346 1.62536,-1.404283 3.32793,-2.813368 5.35627,-3.595679 1.22464,-0.488671 2.89069,-0.109263 3.47852,1.15868 0.5607,1.273473 0.0918,2.728808 -0.52271,3.891846 -0.68912,1.330088 -1.72565,2.499757 -2.15039,3.959472 -0.14604,0.433116 0.1468,0.952563 0.62695,0.958008 0.67712,0.0716 1.41653,0.09295 1.98992,-0.337572 1.31562,-0.873905 1.95199,-2.423411 2.43232,-3.866041 0.68806,-2.376923 0.90144,-4.894335 0.6576,-7.355835 -0.21014,-1.765194 -0.58009,-3.583474 -1.56263,-5.093994 -0.79483,-1.064124 -1.59353,-2.130167 -2.479,-3.121216 -0.67895,0.02221 -1.37032,0.258962 -2.05405,0.363806 -1.91297,0.384468 -3.82595,0.768937 -5.73892,1.153406 z"
       id="path90"
       inkscape:connector-curvature="0"
       transform="scale(0.26458333)" />
    <path
       style="opacity:1;vector-effect:none;fill:#ffffff;fill-opacity:1;stroke:none;stroke-width:0.03407475;stroke-linecap:round;stroke-linejoin:round;stroke-miterlimit:4;stroke-dasharray:none;stroke-dashoffset:0;stroke-opacity:1"
       d="m 242.06529,56.188731 c -1.18111,0.02742 -2.36976,-0.01236 -3.5447,0.124638 -0.64819,0.09424 -1.408,0.304681 -1.69213,0.96442 -0.34056,0.708882 -0.18691,1.519119 -0.22616,2.276086 -0.0384,1.969885 0.30728,3.926297 0.81295,5.823706 0.62849,2.261407 1.54424,4.466589 2.87796,6.406169 0.86176,1.177051 1.9049,2.216206 3.01979,3.152894 0.47831,0.360864 1.08657,0.815346 1.719,0.592735 0.56203,-0.259086 0.66831,-0.95912 0.7731,-1.502297 0.13985,-1.022606 0.10842,-2.063504 0.0542,-3.091653 -0.25794,-1.686136 -0.72533,-3.434025 -1.88334,-4.738962 -0.48577,-0.581936 -0.91529,-1.28127 -0.89019,-2.067027 -0.0248,-1.183652 0.41938,-2.336432 0.80429,-3.450112 0.31329,-0.765776 0.58753,-1.586045 1.15692,-2.2089 0.19839,-0.219331 0.54272,-0.309656 0.78168,-0.09573 0.4936,0.365252 0.95998,0.783955 1.54726,0.997689 0.73311,0.326902 1.53506,0.414785 2.32215,0.511991 0.9353,0.206424 1.71836,0.811632 2.44673,1.403855 1.36565,1.142083 2.24992,2.803144 3.81281,3.716667 0.29951,0.17815 0.76775,0.337914 1.02197,0.0011 0.40454,-0.582977 0.2081,-1.351976 -0.005,-1.971216 -0.58424,-1.511541 -1.5693,-2.879313 -2.83516,-3.893489 -0.54605,-0.432438 -1.2164,-0.742201 -1.92538,-0.714444 -0.85947,-0.08826 -1.75453,-0.390565 -2.33832,-1.066789 -0.49591,-0.537328 -1.26965,-0.613565 -1.94195,-0.774786 -1.93285,-0.371587 -3.90605,-0.423414 -5.86851,-0.396532 z"
       id="path92"
       inkscape:connector-curvature="0"
       transform="scale(0.26458333)" />
    <path
       style="opacity:1;vector-effect:none;fill:#ffff00;fill-opacity:1;stroke:none;stroke-width:0.13629901;stroke-linecap:round;stroke-linejoin:round;stroke-miterlimit:4;stroke-dasharray:none;stroke-dashoffset:0;stroke-opacity:1"
       d="m 143.69435,1009.6249 c -1.64532,0.057 -1.92778,2.0404 -2.37026,3.2504 -1.80287,4.3198 -4.74276,8.0806 -7.84792,11.5481 -1.61748,1.8999 -3.74369,3.2368 -5.99628,4.2642 -5.76115,2.8419 -11.51638,5.7404 -17.47048,8.1392 -5.47434,1.4941 -11.245403,1.192 -16.874705,1.1293 -8.81823,-0.1559 -17.623828,-1.3312 -26.450434,-0.919 -3.359116,0.2966 -6.280816,2.2927 -8.895456,4.2717 -7.09855,5.8009 -10.66408,14.801 -12.151356,23.6283 -0.868802,5.2594 -0.86764,10.6315 -0.620416,15.943 0.487385,4.8883 1.127728,9.9305 3.370841,14.3673 0.490999,0.7846 1.070736,1.7805 1.932198,2.0934 9.082987,-0.5707 18.102503,-1.8941 27.183543,-2.4985 15.388014,-1.1704 30.846685,-0.7312 46.234295,-1.9424 10.35036,-0.8104 20.74388,-1.9545 30.79704,-4.6369 6.09424,-1.708 11.81359,-4.5808 18.02789,-5.8893 2.20538,-0.6518 4.74436,-0.511 6.70021,-1.8544 1.6495,-1.5865 1.64726,-4.1023 2.66487,-6.0556 1.26301,-3.2009 4.04747,-5.9691 7.57489,-6.401 2.65449,-0.3392 5.4931,-0.511 8.04075,0.4751 2.32411,1.557 4.11573,3.8393 5.51184,6.2363 0.28732,0.9615 0.95486,1.9256 2.08334,1.8554 3.98133,0.2614 7.98768,-0.066 11.86016,-1.0388 1.9923,-0.4937 4.11944,-0.7517 6.02329,-1.4436 -1.8273,-20.1783 -2.69122,-40.4387 -4.45881,-60.6248 -0.13598,-0.8868 -0.0984,-1.8792 -0.41325,-2.6896 -3.01893,0.031 -5.88788,1.2071 -8.82848,1.7733 -7.21862,1.6616 -14.68962,1.0955 -22.04009,1.1894 -7.99766,-0.075 -16.03357,0.1189 -23.96545,-1.0712 -6.42719,-0.7385 -12.77127,-2.0154 -19.14725,-3.08 -0.15749,-0.016 -0.31624,-0.023 -0.47452,-0.019 z m 9.29389,5.8502 c 1.21975,-0.1276 2.71485,1.0317 2.11097,2.3403 -0.77103,1.0985 -2.24996,1.5861 -3.53968,1.6807 -0.95487,0.088 -2.26106,-0.7758 -1.61827,-1.8216 0.59048,-1.0287 1.79088,-2.2215 3.04698,-2.1994 z m -5.09648,9.1717 c 1.50373,0.8068 2.54305,2.3308 3.4575,3.7296 0.80771,1.1777 -0.53132,2.3259 -1.25539,3.1326 -0.73374,0.6349 -1.61557,1.7999 -2.71622,1.496 -1.38585,-1.0106 -2.00245,-2.8015 -2.45105,-4.3855 -0.40226,-1.4339 1.04979,-2.4315 1.90933,-3.3301 0.31853,-0.2448 0.6419,-0.5873 1.05583,-0.6426 z m -12.72516,11.2992 c 2.92791,-0.081 5.29204,3.2225 4.30202,5.9214 -0.84978,0.5919 -2.00837,-0.09 -2.92544,-0.182 -1.67084,-0.5114 -3.78937,-0.8683 -4.70703,-2.5129 -0.50447,-1.3229 0.93099,-2.5 2.00255,-2.9748 0.42196,-0.1659 0.87477,-0.2493 1.3279,-0.2517 z"
       id="path94"
       inkscape:connector-curvature="0"
       transform="scale(0.26458333)" />
    <path
       style="opacity:1;vector-effect:none;fill:#ffff00;fill-opacity:1;stroke:none;stroke-width:0.06814951;stroke-linecap:round;stroke-linejoin:round;stroke-miterlimit:4;stroke-dasharray:none;stroke-dashoffset:0;stroke-opacity:1"
       d="m 294.52304,1006.3572 c -5.89198,0.086 -11.50651,2.513 -16.27651,5.8465 -6.55259,4.5456 -12.55106,9.8315 -18.431,15.2031 -3.55034,3.3676 -7.02966,6.8144 -10.38781,10.374 -2.01366,2.2317 -4.02887,4.5346 -5.27673,7.3018 -2.46927,5.0491 -4.69542,10.3844 -5.12444,16.0486 -0.35207,4.7096 1.13076,9.4366 3.68864,13.3623 0.8003,1.2029 1.97728,2.3676 3.51124,2.4155 2.29341,0.1625 4.45168,1.0166 6.60056,1.7838 2.85555,0.8474 5.86192,0.983 8.81731,1.1693 8.21071,0.3511 16.4462,-0.055 24.60802,-0.9828 8.74856,-1.05 17.32656,-3.2096 25.74634,-5.7635 7.00619,-2.1922 13.97069,-4.6356 20.53067,-7.9578 2.14838,-1.1637 4.3992,-2.3207 6.05185,-4.1649 1.04583,-1.2558 1.27043,-2.9602 1.18681,-4.5405 0.0699,-3.035 -0.98371,-5.9508 -2.09122,-8.7301 -2.93582,-6.9042 -7.31204,-13.096 -12.10806,-18.8251 -4.90224,-5.7412 -10.13564,-11.208 -15.71519,-16.295 -1.98707,-1.737 -3.96874,-3.6185 -6.49543,-4.536 -2.79181,-1.182 -5.80167,-1.7772 -8.83505,-1.7092 z m -8.08374,3.8055 c 0.66711,0.1414 1.05509,0.8302 1.46842,1.3142 0.35415,0.4144 0.45381,1.0839 0.0269,1.4909 -1.00257,1.0446 -2.27858,1.8064 -3.62772,2.3109 -0.40034,0.063 -0.87835,0.2017 -1.24831,0.018 -0.33045,-0.738 0.19394,-1.5341 0.52083,-2.1809 0.67088,-1.0496 1.41826,-2.1177 2.44916,-2.8401 0.12534,-0.069 0.26582,-0.1197 0.41069,-0.1131 z m 15.13668,1.2735 c 0.64668,-0.1181 1.27024,0.5773 1.0339,1.1903 -0.56459,0.8555 -1.75242,1.4116 -2.74884,1.0536 -0.4785,-0.417 -0.0514,-1.1426 0.26205,-1.5373 0.35465,-0.4393 0.87748,-0.7284 1.45289,-0.7066 z m 5.74766,4.061 c 0.80627,0.1396 1.42127,0.8494 1.77864,1.5477 0.34971,0.804 -0.41095,1.5355 -0.87235,2.1188 -0.66596,0.6949 -1.4675,1.6689 -2.54389,1.4951 -0.68736,-0.1737 -1.24431,-0.879 -1.01906,-1.6089 0.32176,-1.3057 1.08457,-2.5089 2.13789,-3.3583 0.15396,-0.1014 0.32803,-0.2019 0.51877,-0.1944 z m -31.26445,2.8084 c 1.01167,0.099 1.68167,1.0714 2.01015,1.9492 0.0775,0.6964 -0.57947,1.2021 -1.02855,1.6485 -0.43665,0.3133 -0.97555,0.9224 -1.56182,0.6424 -0.58889,-0.5905 -0.79853,-1.4814 -0.87853,-2.2817 -0.0598,-0.8789 0.43853,-1.992 1.45875,-1.9584 z m 37.78982,5.2345 c 0.89862,-0.098 1.99137,0.5374 1.94075,1.5271 -0.29518,1.037 -1.54263,1.4447 -2.5208,1.3141 -0.82196,-0.085 -1.82663,-0.5388 -1.98373,-1.4307 0.15167,-0.7714 1.01956,-1.1678 1.71667,-1.3279 0.27911,-0.053 0.5631,-0.079 0.84711,-0.083 z m -47.63441,2.0569 c 0.98225,0.2672 1.60574,1.2177 2.10492,2.0314 0.58769,0.9855 0.75527,2.3635 -0.0647,3.2757 -0.63188,0.8525 -1.89061,0.6516 -2.56948,-0.023 -1.29399,-1.1319 -1.59363,-3.3374 -0.54379,-4.7087 0.26823,-0.3131 0.6564,-0.5493 1.07309,-0.5759 z m 37.4934,5.4027 c 2.06689,0.057 4.20552,-0.025 6.18382,0.5974 0.52364,0.2572 1.1408,0.4886 1.52237,0.9313 -0.58656,0.4997 -1.42458,0.5719 -2.14817,0.7891 -4.35617,0.8742 -8.80964,1.1914 -13.23002,1.6422 -9.86347,0.9161 -19.75229,1.5917 -29.58484,2.8138 -0.59176,-0.01 -1.30397,0.2257 -1.83239,-0.1248 -0.20355,-0.4337 0.25614,-0.8806 0.3848,-1.2806 0.6478,-1.4489 2.20209,-2.1293 3.64744,-2.5095 3.76621,-0.9494 7.66226,-1.2022 11.51826,-1.5723 6.89357,-0.5406 13.79591,-1.0337 20.70798,-1.2518 0.94338,-0.024 1.88706,-0.037 2.83075,-0.035 z"
       id="path96"
       inkscape:connector-curvature="0"
       transform="scale(0.26458333)" />
    <path
       style="opacity:1;vector-effect:none;fill:#ffdd55;fill-opacity:1;stroke:none;stroke-width:0.09637795;stroke-linecap:round;stroke-linejoin:round;stroke-miterlimit:4;stroke-dasharray:none;stroke-dashoffset:0;stroke-opacity:1"
       d="m 192.47606,1071.2933 c -2.08579,0.1076 -4.57634,0.4299 -5.78711,2.3721 -1.44078,2.6524 -1.85938,5.779 -3.59892,8.292 -1.70381,2.8401 -4.91806,4.6309 -8.20587,4.7383 -3.63977,0.178 -7.41627,0.4288 -10.7271,2.1127 -5.14296,2.2218 -10.68725,3.3574 -16.16166,4.4738 -11.2853,2.1788 -22.74424,3.3567 -34.21964,3.9418 -16.196628,0.9496 -32.403115,1.7381 -48.61622,2.3392 -4.041212,0.212 -8.048418,1.0724 -11.859961,2.4171 -0.415614,0.1726 -1.285685,0.4314 -0.813268,1.031 1.578343,3.4778 3.017238,7.0438 4.636718,10.488 1.200229,0.058 2.418431,-0.2638 3.626484,-0.3135 10.649044,-1.1707 21.36806,-1.3618 32.067184,-1.7244 9.148163,-0.3308 18.301943,-1.0366 27.327763,-2.6065 9.73419,-1.54 19.56829,-2.2811 29.36169,-3.3479 8.60727,-1.0282 17.25182,-2.1134 25.64398,-4.3465 3.47538,-0.9126 7.12458,-2.4382 9.16559,-5.5604 2.228,-3.4172 2.74771,-7.7138 5.28583,-10.9377 0.67266,-0.9284 1.98775,-1.0019 2.91675,-0.4392 3.03491,1.6995 5.26128,4.4747 8.08325,6.4772 2.86562,2.2454 6.42152,3.7179 10.10277,3.6189 3.38374,0.069 6.67298,-0.8828 9.97739,-1.4761 0.81837,-0.2194 1.74542,-0.2705 2.48917,-0.6178 0,-4.1222 0,-8.2444 0,-12.3667 -0.69981,-0.1771 -1.559,0.128 -2.32116,0.1123 -5.99889,0.4797 -11.99834,0.9591 -18.0055,1.3186 -1.68106,-2.5926 -2.9236,-5.5079 -5.0166,-7.8127 -1.35556,-1.4931 -3.34022,-2.2891 -5.35156,-2.1836 z"
       id="path98"
       inkscape:connector-curvature="0"
       transform="scale(0.26458333)" />
    <path
       style="opacity:1;vector-effect:none;fill:#ffdd55;fill-opacity:1;stroke:none;stroke-width:0.06814951;stroke-linecap:round;stroke-linejoin:round;stroke-miterlimit:4;stroke-dasharray:none;stroke-dashoffset:0;stroke-opacity:1"
       d="m 340.36106,1064.0743 c -0.94145,0.096 -1.33328,1.0999 -1.80125,1.7839 -1.04234,1.254 -2.56242,1.9858 -3.92944,2.8132 -4.3768,2.3924 -8.95557,4.4293 -13.68089,6.0324 -4.2546,1.3051 -8.54982,2.5166 -12.77888,3.9204 -4.81155,1.5824 -9.6383,3.1418 -14.61828,4.0955 -7.71008,1.5732 -15.58273,2.3536 -23.45582,2.1747 -6.616,0 -13.21555,-0.7781 -19.66014,-2.2732 -2.63535,-0.5645 -5.28564,-1.1989 -7.98886,-1.2959 -0.50228,-0.046 -1.12568,0.1737 -1.13835,0.7651 -0.19368,2.0026 0.27294,4.0118 0.82639,5.9254 0.38169,1.3616 1.16212,2.7662 2.57915,3.2504 2.3478,0.8499 4.89812,0.7763 7.35953,0.7954 5.95043,-0.08 11.88862,-0.6844 17.73907,-1.7701 4.85845,-0.8463 9.80517,-0.869 14.72085,-1.1317 5.82885,-0.2877 11.47387,-1.8704 17.18901,-2.9127 9.65459,-1.7864 19.21766,-4.1204 28.55843,-7.1561 3.02535,-1.0389 6.10444,-2.0248 8.90696,-3.5923 1.33729,-0.6489 1.71581,-2.2053 1.98943,-3.5328 0.41963,-2.0939 0.45945,-4.2632 0.2353,-6.3829 -0.12484,-0.5736 -0.29801,-1.5144 -1.05221,-1.5087 z"
       id="path100"
       inkscape:connector-curvature="0"
       transform="scale(0.26458333)" />
    <path
       style="opacity:1;vector-effect:none;fill:#a02c2c;fill-opacity:1;stroke:none;stroke-width:0.27259803;stroke-linecap:round;stroke-linejoin:round;stroke-miterlimit:4;stroke-dasharray:none;stroke-dashoffset:0;stroke-opacity:1"
       d="m 238.38806,442.26508 c -1.09435,1.88883 -0.69651,4.45537 -1.18611,6.58054 -2.41852,23.08449 -4.79386,46.1889 -8.69142,69.07974 -3.92148,27.76905 -4.41117,55.91326 -8.45891,83.66179 -1.10288,7.11442 -3.1135,14.83885 -9.09916,19.45096 -7.0274,5.86261 -16.37972,7.96347 -25.34725,7.9179 -8.71433,0.46328 -17.53671,0.32258 -25.9967,-2.01867 -19.34628,-4.98207 -39.01234,-8.54522 -58.73493,-11.654 -8.344331,-1.24416 -16.531856,-3.59036 -24.951586,-4.27593 -2.607377,-0.40537 -4.677415,1.82396 -4.846686,4.29288 -1.729592,12.11129 -1.802436,24.39481 -2.379837,36.59993 -0.486954,18.02579 -1.211531,36.08048 -0.456195,54.10631 1.019883,6.00672 2.287963,11.99184 3.079301,18.04924 1.292076,9.13451 2.410482,19.00176 8.4099,26.44198 4.39015,4.27673 10.698025,5.57237 16.18473,7.88879 9.877893,3.76476 20.097583,7.03226 30.743773,7.46339 12.05618,0.58377 23.95799,2.8188 36.03312,3.22284 21.18276,1.19897 42.42415,1.06186 63.6226,0.42268 23.48163,-2.28093 45.837,-10.29886 68.57974,-16.06931 6.05093,-1.84603 12.06199,-3.85722 18.01114,-6.0072 5.06189,-2.37652 9.83814,-5.31211 15.02324,-7.45281 7.98614,-3.49183 15.0061,-8.90369 23.27309,-11.7682 3.61675,-1.76279 7.68024,-4.20731 8.94517,-8.26707 1.22358,-7.45573 0.58918,-15.11174 2.01084,-22.55767 1.79512,-13.18342 0.96311,-26.54427 0.93285,-39.80439 -0.25382,-6.14522 3.1e-4,-12.36876 -0.75124,-18.46632 -0.69617,-1.91903 -2.9976,-0.42679 -4.32802,-0.24484 -8.51515,2.67905 -17.1674,5.42927 -26.19496,5.28919 -10.08967,0.24806 -20.19685,0.0775 -30.19828,-1.3851 -8.36734,-1.12787 -16.9061,-0.86115 -25.19981,-2.43079 -6.38224,-1.30481 -12.90745,-4.68443 -15.62938,-10.9187 -5.61531,-11.72103 -7.63112,-24.76792 -9.31401,-37.53681 -1.79556,-15.22267 -4.0526,-30.40745 -4.80205,-45.73125 -1.53713,-21.41613 -1.87481,-42.89434 -3.22258,-64.31884 -0.9968,-12.51535 -1.67989,-25.12173 -4.06463,-37.46656 -0.2646,-0.64852 -0.34805,-1.73914 -0.99575,-2.0937 z m -29.56521,185.17773 c 1.86812,0.44996 4.2281,2.10039 3.91188,4.24955 -0.82352,1.59473 -2.12694,3.62156 -4.08658,3.83937 -1.75578,-0.38945 -3.81081,-1.48805 -4.51817,-3.21651 0.20942,-1.93435 1.91062,-3.63378 3.51896,-4.5596 0.38751,-0.15136 0.74926,-0.32498 1.17391,-0.31281 z m -1.33618,29.646 c 2.34443,0.32751 4.27677,2.46129 5.08302,4.59067 0.12136,2.2712 -3.21093,2.87451 -4.72533,1.65245 -2.59074,-0.60248 -3.90027,-4.80502 -1.24572,-6.09051 0.28225,-0.10839 0.58617,-0.15651 0.88803,-0.15261 z m -0.0262,18.28673 c 2.13964,0.19407 4.6565,1.36028 5.43105,3.46095 -0.1367,2.29732 -2.93965,4.17407 -5.09891,3.12674 -2.56194,-0.81837 -3.81197,-5.10856 -1.1304,-6.46754 0.25733,-0.0832 0.52834,-0.1189 0.79826,-0.12015 z m 3.61149,24.77566 c 1.68108,0.32009 2.91458,2.17817 3.23653,3.76894 -0.36688,2.30828 -2.91636,3.55795 -4.81992,4.47051 -2.00155,-0.33466 -3.59735,-3.01933 -2.11097,-4.7778 0.82718,-1.39761 1.88913,-3.25568 3.69436,-3.46165 z m 0.35217,25.06293 c 2.79632,0.34889 5.27662,3.59852 4.75778,6.42473 -1.14373,2.74512 -5.02811,2.0077 -6.78587,0.27759 -0.85929,-0.91335 -2.54353,-1.76625 -2.55705,-3.12604 1.10695,-1.48163 2.59226,-3.4876 4.58514,-3.57628 z m 2.36508,20.5061 c 2.568,-0.14165 3.34516,3.13383 2.24355,4.99947 -0.70558,1.31354 -1.85505,3.26783 -3.54935,3.15366 -1.35587,-0.9997 -3.51452,-2.41066 -3.10049,-4.36141 0.95364,-1.56751 2.42652,-3.69238 4.40629,-3.79172 z"
       id="path102"
       inkscape:connector-curvature="0"
       transform="scale(0.26458333)" />
    <path
       style="opacity:1;vector-effect:none;fill:#ffaaaa;fill-opacity:1;stroke:none;stroke-width:0.20433071;stroke-linecap:round;stroke-linejoin:round;stroke-miterlimit:4;stroke-dasharray:none;stroke-dashoffset:0;stroke-opacity:1"
       d="m 205.0566,172.07983 c -0.49281,0.14424 -0.59385,0.75642 -0.74793,1.18006 -0.7986,3.09865 -0.57844,6.32848 -0.67858,9.49591 -0.0115,1.34622 -0.0604,2.69754 -0.0919,4.03363 0.1257,0.26851 0.47134,-0.0294 0.67408,-0.0277 0.71645,-0.23029 1.46545,-0.26509 2.19983,-0.41187 0.20368,-0.14897 -0.0181,-0.45236 0.0565,-0.65881 -0.0143,-3.92073 0.0744,-7.86675 -0.50622,-11.75598 -0.13835,-0.61749 -0.18983,-1.35752 -0.69446,-1.80127 -0.0626,-0.0391 -0.13725,-0.0607 -0.2113,-0.054 z"
       id="path911"
       inkscape:connector-curvature="0"
       transform="scale(0.26458333)" />
    <path
       style="opacity:1;vector-effect:none;fill:#803300;fill-opacity:1;stroke:none;stroke-width:0.40866143;stroke-linecap:round;stroke-linejoin:round;stroke-miterlimit:4;stroke-dasharray:none;stroke-dashoffset:0;stroke-opacity:1"
       d="m 206.67105,189.38073 c -1.44559,0.0393 -3.2155,0.51757 -3.84351,1.96167 0.12508,2.05681 1.20401,3.92791 2.19898,5.68824 4.40088,7.12896 10.29311,13.1519 15.56451,19.61878 2.80826,3.42001 5.6882,6.82182 7.92523,10.65807 1.3919,2.29271 3.42328,4.08276 4.97723,6.24889 0.8025,0.95832 0.85256,2.26221 1.53625,3.2957 3.54392,6.19701 7.96118,11.86406 11.28372,18.19235 2.18763,4.02326 5.51534,7.82339 10.04704,9.14661 3.52936,1.09894 7.39266,-0.0162 10.35474,-2.05787 2.89193,-2.23187 5.13146,-5.19947 7.12768,-8.22949 0.7026,-1.27028 1.72385,-2.57861 1.62696,-4.10376 -0.33697,-0.87376 -1.51728,-0.89253 -2.29517,-1.05908 -2.15775,-0.20735 -4.46004,-0.19463 -6.29492,-1.50977 -3.86886,-2.72608 -7.13358,-6.24294 -10.03202,-9.9595 -1.466,-1.87461 -2.67571,-3.93236 -3.5339,-6.16305 -0.5973,-1.32549 -1.5211,-2.84328 -3.13867,-2.94361 -3.52997,-0.32987 -6.95649,-1.57526 -10.01758,-3.34057 -1.10753,-0.65825 -1.5466,-1.96082 -2.53182,-2.7714 -4.92231,-5.03999 -10.38717,-9.5248 -15.17557,-14.69827 -5.22976,-5.49032 -10.08533,-11.35282 -14.26697,-17.68439 -0.40422,-0.32426 -1.02573,-0.25952 -1.51221,-0.28955 z"
       id="path913"
       inkscape:connector-curvature="0"
       transform="scale(0.26458333)" />
  </g>
  <g
     inkscape:label="Layer 1"
     inkscape:groupmode="layer"
     id="layer1"
     transform="translate(-1.3312744,-0.99193256)">
    <path
       style="fill:#000000;stroke-width:0.30132461"
       d="m 15.87931,296.06788 c -0.339861,-0.38792 -1.356833,-2.17362 -2.259941,-3.9682 l -1.642003,-3.26285 0.01709,-3.36628 c 0.01389,-2.73359 0.142118,-3.68315 0.682133,-5.05214 0.745729,-1.89048 3.455043,-5.09361 4.931227,-5.83002 1.07502,-0.53629 5.512128,-0.63239 8.596864,-0.18618 2.230261,0.3226 4.378889,-0.0974 7.317958,-1.43073 2.183965,-0.99072 3.354502,-2.07107 4.051305,-3.73917 0.628208,-1.50386 0.601229,-1.64442 -0.360667,-1.87933 -1.373494,-0.33543 -3.096585,-1.71061 -3.751249,-2.99388 -0.942764,-1.84795 -1.747918,-4.38332 -1.747918,-5.504 0,-1.14107 0.875639,-2.21277 1.807947,-2.21277 0.403591,0 0.602642,-0.20089 0.602642,-0.60819 0,-0.68284 -1.076285,-4.94151 -1.483588,-5.87028 -0.145353,-0.33146 -0.761296,-2.02642 -1.368767,-3.76656 -0.60747,-1.74015 -1.376978,-3.84189 -1.710016,-4.67053 -0.333051,-0.82865 -1.05386,-3.06598 -1.601802,-4.97186 -0.547964,-1.90588 -1.340501,-4.61781 -1.76122,-6.0265 -0.420708,-1.40868 -1.060453,-3.91722 -1.421644,-5.57451 -0.361191,-1.65728 -0.911692,-4.098 -1.223344,-5.42384 -0.311638,-1.32581 -0.77035,-3.69876 -1.019363,-5.27317 -0.249012,-1.57442 -0.74017,-4.69313 -1.091464,-6.93046 -0.351295,-2.23734 -0.674469,-5.15267 -0.718191,-6.4785 -0.05045,-1.53115 -0.262952,-2.75944 -0.582393,-3.36682 -0.276607,-0.52594 -0.627423,-2.0175 -0.779599,-3.31459 -0.152163,-1.29707 -0.499869,-3.57868 -0.772662,-5.07024 -0.420253,-2.29785 -0.465886,-4.02313 -0.298883,-11.29967 0.178084,-7.75904 0.69063,-14.21181 1.193473,-15.02543 0.108989,-0.17631 -0.518582,-0.53024 -1.474489,-0.83156 -0.915316,-0.28853 -1.664199,-0.62592 -1.664199,-0.74974 0,-0.12386 -0.628653,-0.53913 -1.397001,-0.92286 -0.768346,-0.38373 -1.736449,-1.14274 -2.151337,-1.68669 -0.67759,-0.88837 -0.73507,-1.17333 -0.564945,-2.80093 0.104205,-0.99656 0.52988,-2.82625 0.946032,-4.06596 0.416152,-1.23971 0.756649,-2.4292 0.756649,-2.64327 0,-0.2141 0.338995,-1.09195 0.753315,-1.9508 0.414318,-0.85884 0.753313,-1.69964 0.753313,-1.86843 0,-0.16879 0.125138,-0.54235 0.278099,-0.83013 0.452107,-0.85059 1.734286,-8.15136 2.711398,-15.43879 0.535152,-3.9912 1.484418,-9.44364 1.940636,-11.14678 0.447254,-1.66961 0.323551,-2.09466 -0.613141,-2.10688 -0.194451,-0.002 -0.743213,-0.33251 -1.219485,-0.73326 -0.476273,-0.40077 -1.940649,-1.29465 -3.254158,-1.98644 -3.710034,-1.95392 -8.5331036,-6.04905 -11.5965581,-9.84627 -3.12375746,-3.871997 -3.13500931,-5.211948 -0.087237,-10.392934 1.1260644,-1.914221 2.754697,-4.481909 3.6191866,-5.705949 0.8644894,-1.224041 1.8486049,-2.632326 2.1869278,-3.12951 0.3383229,-0.497182 1.2283577,-1.717555 1.9778667,-2.711922 0.749498,-0.994376 2.020983,-2.757121 2.825511,-3.917226 0.804529,-1.160093 2.125292,-2.787246 2.935025,-3.615895 0.809745,-0.828638 1.873706,-2.048999 2.364387,-2.711922 0.490667,-0.66291 1.689367,-2.086672 2.663792,-3.163902 0.974412,-1.07724 1.888863,-2.263699 2.032107,-2.636596 0.143245,-0.372888 0.451617,-0.677978 0.685243,-0.677978 0.233638,0 0.666657,-0.36914 0.962283,-0.820302 0.295616,-0.451173 2.582456,-2.895369 5.081854,-5.431552 2.499397,-2.536172 4.583873,-4.788744 4.632183,-5.00572 0.04829,-0.216953 -0.509073,-1.128762 -1.23864,-2.026234 -2.487006,-3.059401 -3.397198,-4.656055 -4.038778,-7.084774 -1.406464,-5.324306 -1.592373,-8.107931 -0.833205,-12.475795 0.724647,-4.169247 1.051366,-5.161164 3.101538,-9.416394 0.306731,-0.636615 -1.311016,-0.0508 -3.922534,1.420449 -3.309631,1.864514 -7.885506,5.336434 -9.851529,7.474789 -0.726892,0.7906 -1.381544,1.377526 -1.454785,1.304286 -0.28196,-0.28195 1.513938,-2.89446 2.747146,-3.996312 3.945118,-3.524899 8.12501,-6.236637 11.333226,-7.35252 1.310149,-0.455706 1.362309,-0.5216 1.573296,-1.987627 0.260629,-1.811022 1.148408,-3.976414 2.190332,-5.342448 0.41695,-0.546644 0.758085,-1.08248 0.758085,-1.19075 0,-0.481364 2.267423,-3.2369839 4.209357,-5.1156668 1.443966,-1.3969317 2.822563,-2.3877205 4.305844,-3.094568 1.200009,-0.571859 2.385226,-1.1515743 2.633817,-1.2882384 1.211103,-0.6658374 1.759432,-0.8858207 2.721807,-1.0919556 0.574614,-0.1230765 1.180957,-0.3326843 1.347436,-0.4658065 0.72089,-0.5764476 5.26546,-0.92327739 7.7108,-0.5884622 2.852517,0.3905613 3.174133,0.5008277 6.751401,2.3146168 3.533154,1.7914105 5.246915,3.1823752 7.239135,5.8756182 1.725483,2.3326345 2.004803,2.8237015 3.437416,6.0434655 0.68643,1.542739 1.052231,2.033944 1.514697,2.033944 1.739967,0 10.238529,4.174371 10.996977,5.401555 0.356366,0.576606 -0.377312,0.58902 -0.89663,0.01515 -0.296431,-0.32755 -0.725601,-0.595547 -0.953699,-0.595547 -0.228119,0 -0.489627,-0.195111 -0.581116,-0.433577 -0.0916,-0.238466 -0.552476,-0.518365 -1.024366,-0.622014 -0.471892,-0.10364 -1.019543,-0.383124 -1.217024,-0.621057 -0.197471,-0.237943 -0.6844,-0.43262 -1.082072,-0.43262 -0.397662,0 -1.568097,-0.383171 -2.600977,-0.851496 -1.976726,-0.896297 -3.834483,-1.392683 -3.833272,-1.024249 2.88e-4,0.12015 0.540266,1.46909 1.199734,2.997652 2.025451,4.694776 2.974697,12.555139 2.273251,18.823802 l -0.225685,2.016907 1.808161,2.201643 c 0.994505,1.210896 3.095429,3.513589 4.668744,5.117077 2.897076,2.952654 6.63379,7.660572 7.611282,9.589536 1.087397,2.14586 4.837565,7.754245 6.678597,9.987865 1.04452,1.26726 1.89912,2.442729 1.89912,2.61218 0,0.16944 0.19646,0.691951 0.43657,1.16113 0.24012,0.469189 0.51282,1.056456 0.60598,1.305058 0.0932,0.248592 0.40518,0.812956 0.69339,1.254129 0.28819,0.441185 0.95593,1.542308 1.48386,2.446942 0.52792,0.904634 1.61805,2.442011 2.42248,3.4164 0.80443,0.974379 1.86403,2.441692 2.35469,3.260694 0.49064,0.818993 1.16328,1.925035 1.49474,2.457864 0.33146,0.53283 1.06041,1.761084 1.61993,2.729461 0.55949,0.968365 1.45973,2.370848 2.00055,3.116634 0.5408,0.745774 1.82015,3.002357 2.84301,5.014619 1.54884,3.047093 1.93376,4.118703 2.30271,6.410803 0.47243,2.93483 0.28396,4.30314 -0.91101,6.61393 -0.71918,1.39076 -3.2103,3.21381 -5.37653,3.9347 -1.7993,0.59877 -7.33608,1.32422 -7.82987,1.02589 -0.12578,-0.076 -0.49261,-0.0544 -0.8152,0.0479 -0.56865,0.18048 -0.58115,0.44952 -0.41054,8.8332 0.25134,12.34997 0.14039,29.41312 -0.20509,31.54134 -0.16199,0.99789 -0.29556,2.44411 -0.2968,3.21387 -0.003,1.81213 -1.04329,5.21591 -2.04282,6.68374 -0.43177,0.63407 -1.30185,1.41651 -1.9335,1.73874 -0.63167,0.32226 -1.148477,0.70932 -1.148477,0.86016 0,0.15083 -0.305091,0.31756 -0.677981,0.37052 -0.651371,0.0924 -0.675451,0.20271 -0.613389,2.80822 0.03549,1.49156 0.1107,4.67806 0.16713,7.08113 0.05632,2.40306 -0.01244,4.776 -0.152965,5.27318 -0.14052,0.49718 -0.36018,2.4957 -0.488108,4.44117 -0.267609,4.06968 -0.461531,4.42017 -3.183441,5.75294 -0.885377,0.43353 -1.698565,1.01961 -1.807067,1.3024 -0.108545,0.28278 -0.258948,2.42201 -0.334293,4.75385 -0.07523,2.33184 -0.21153,4.8499 -0.302656,5.59567 -0.09107,0.74578 -0.179639,4.81366 -0.196728,9.03974 -0.01711,4.22608 -0.113092,7.81938 -0.213336,7.98511 -0.100218,0.16571 -0.198502,0.7759 -0.218332,1.35595 -0.195313,5.7117 -1.103867,19.28251 -1.482741,22.14736 -0.263008,1.98874 -0.599203,4.56507 -0.747098,5.72517 -0.387747,3.04156 -0.356695,15.39871 0.04836,19.27735 0.22847,2.18722 0.544145,3.66093 0.932221,4.35184 2.25424,4.0135 3.093708,6.97181 2.488448,8.76943 -0.409139,1.21518 -1.822689,2.43615 -3.365068,2.90665 -4.014557,1.22461 -11.536584,2.6885 -15.164287,2.95119 -1.242974,0.09 -3.412507,0.2941 -4.821199,0.45355 -2.80223,0.31716 -4.417787,0.0627 -5.188467,-0.81718 -0.633082,-0.7228 -0.961116,-3.2008 -0.530255,-4.00585 0.271137,-0.50664 0.228353,-0.86491 -0.208268,-1.74408 -0.693751,-1.3969 -0.699011,-4.07443 -0.01062,-5.37725 0.460531,-0.87148 0.466514,-1.16512 0.06748,-3.31457 -0.240787,-1.2971 -0.725197,-4.45656 -1.076482,-7.02103 -0.550627,-4.01967 -0.875441,-7.34735 -1.9934,-20.4226 -0.412668,-4.82634 -1.021679,-1.13419 -1.105887,6.70446 -0.04516,4.20914 -0.0021,4.59481 0.629426,5.61008 0.800053,1.28649 0.86237,2.74576 0.222231,5.20344 -0.336535,1.29208 -0.378725,2.03769 -0.161253,2.85057 0.161976,0.60546 0.441593,4.21951 0.62137,8.03127 0.179787,3.81176 0.421849,7.74406 0.537917,8.73843 0.116057,0.99437 0.169606,2.45382 0.119023,3.2432 -0.111276,1.73562 -0.757748,2.26702 -3.427364,2.81714 -1.600678,0.32988 -1.926109,0.30803 -3.091576,-0.20751 -0.716414,-0.3169 -1.525203,-0.91596 -1.797299,-1.33124 -0.701769,-1.07103 -1.246101,-0.93813 -1.797004,0.43869 -0.26269,0.65655 -0.853704,1.43435 -1.313339,1.72846 -0.459645,0.29413 -0.971314,0.68882 -1.137042,0.8771 -0.417963,0.47487 -2.860976,1.05317 -5.725175,1.35524 -6.293969,0.66378 -8.0164,0.85811 -10.375523,1.1706 -1.397603,0.18517 -2.636882,0.39582 -2.753958,0.4682 -0.117075,0.0723 -2.601473,0.19601 -5.520862,0.27481 -2.919396,0.0788 -5.951384,0.22799 -6.73777,0.33149 -1.251418,0.16472 -1.506865,0.10016 -2.047701,-0.51713 z m 9.205667,-1.0131 c 2.403072,-0.0489 5.58958,-0.30502 7.08114,-0.56921 1.49156,-0.26418 4.203482,-0.60843 6.026496,-0.76496 5.243242,-0.45026 9.531408,-1.20557 10.759436,-1.89514 0.848293,-0.47634 1.24414,-0.98069 1.645294,-2.09628 0.877871,-2.44126 1.214302,-2.54778 2.947825,-0.93318 1.753408,1.63311 2.936654,1.9782 5.173859,1.50894 l 1.620935,-0.34 v -1.61771 -1.61769 l -2.681901,0.2098 -2.681909,0.2098 -0.705425,-1.22569 c -0.754371,-1.31076 -1.368607,-1.62352 -2.675237,-1.3622 -0.642663,0.12854 -0.899146,0.42678 -1.183634,1.3763 -0.551871,1.84202 -1.517674,2.64518 -3.18078,2.64518 -0.761536,0 -1.750766,0.18697 -2.198293,0.41547 -1.914228,0.97743 -7.180964,1.95119 -12.264013,2.2675 -4.161445,0.25897 -12.213658,0.64849 -14.312927,0.6924 -0.953003,0.02 -3.340587,0.60785 -3.233374,0.79617 0.06184,0.10876 0.366555,0.78886 0.677044,1.51145 l 0.564512,1.31377 2.125874,-0.21792 c 1.169237,-0.11987 4.09202,-0.25793 6.495078,-0.3068 z m -5.988785,-4.1994 c 2.092356,-0.23514 5.753439,-0.44825 8.135761,-0.47356 7.823874,-0.0831 13.670019,-0.81318 16.723076,-2.08836 1.139616,-0.476 2.713892,-0.95968 3.498398,-1.07487 1.312667,-0.19273 1.449775,-0.29421 1.720072,-1.27315 0.480386,-1.73979 1.397149,-2.48522 3.056441,-2.48522 1.223903,0 1.538492,0.13212 2.207415,0.92709 0.429056,0.50991 0.7801,1.0523 0.7801,1.2053 0,0.38326 1.758007,0.34867 3.573123,-0.0702 l 1.509819,-0.3485 -0.137109,-1.38412 c -0.07535,-0.76124 -0.335601,-4.48941 -0.578204,-8.2848 -0.242614,-3.79539 -0.496429,-6.95602 -0.564038,-7.02364 -0.0677,-0.0677 -0.872869,0.0951 -1.789475,0.36156 -0.916604,0.26646 -2.592226,0.47325 -3.723621,0.4595 -1.131381,-0.0138 -3.263291,-0.0196 -4.737585,-0.013 -2.268915,0.0107 -5.504417,-0.37608 -8.959153,-1.06944 -0.66677,-0.13382 -0.824013,-0.0314 -0.994604,0.64837 -0.251883,1.00358 -2.061971,3.40835 -2.964454,3.93842 -0.684832,0.40222 -3.16578,1.6061 -5.003327,2.42787 -1.147007,0.51295 -3.672565,0.58446 -8.646291,0.24481 -2.863674,-0.19556 -3.480529,-0.1541 -4.369208,0.29364 -2.895255,1.45867 -4.602904,5.09525 -4.600216,9.79653 0.0022,2.98181 0.748906,5.72873 1.555724,5.71931 0.276709,-0.003 2.215012,-0.19827 4.307356,-0.43341 z m 18.192447,-14.24235 c -1.016072,-0.24974 -1.412431,-0.7068 -1.021459,-1.17788 0.695608,-0.83816 2.076094,-0.2706 2.076094,0.85354 0,0.56002 -0.04259,0.57311 -1.054635,0.32434 z m 2.501356,-2.95698 c -0.288917,-0.63413 -0.258817,-0.85244 0.176571,-1.28063 0.496077,-0.4879 0.557258,-0.47667 1.115859,0.20479 0.555106,0.67719 0.56023,0.75496 0.08451,1.28063 -0.677124,0.74821 -0.962033,0.70583 -1.376945,-0.20479 z m 1.167371,-3.04973 c -0.266756,-0.26675 0.372979,-1.00702 0.870253,-1.00702 0.599213,0 0.868372,0.63395 0.396154,0.93305 -0.498151,0.31552 -0.99579,0.34457 -1.266407,0.0741 z m 31.525747,18.85993 c 0.795365,-0.15448 2.219127,-0.28676 3.163909,-0.29399 0.944771,-0.006 2.327959,-0.14969 3.07375,-0.31659 0.74577,-0.16693 2.033931,-0.4279 2.862581,-0.57995 4.068818,-0.74663 9.208594,-2.30622 9.717711,-2.94872 0.429235,-0.5417 0.515781,-2.77074 0.107513,-2.77074 -0.148002,0 -0.341594,0.18894 -0.430212,0.41988 -0.19272,0.5022 -3.472485,2.09482 -5.347245,2.59655 -0.73475,0.19664 -2.35288,0.69967 -3.595844,1.11784 -4.583175,1.54194 -10.123258,1.83327 -14.532671,0.76426 -1.115229,-0.27038 -2.121965,-0.39734 -2.237173,-0.28214 -0.115207,0.11523 -0.08416,0.71597 0.06908,1.33502 0.228044,0.92136 0.442529,1.15714 1.182539,1.2999 1.088342,0.20998 3.978925,0.0446 5.966002,-0.34132 z m 4.42971,-3.03613 c 5.194026,-0.57225 13.441313,-3.46656 14.119548,-4.95512 0.718321,-1.57655 -0.795164,-4.9769 -3.742453,-8.40821 -1.908044,-2.22138 -4.44088,-4.68506 -5.254588,-5.1111 -2.068119,-1.08281 -4.43663,-0.84264 -6.779795,0.68751 -2.883081,1.8827 -8.347075,6.99594 -9.128998,8.54295 -1.69189,3.34735 -1.941604,5.31211 -0.938501,7.38423 0.447896,0.92523 0.817386,1.30436 1.280637,1.31403 0.358098,0.007 1.057885,0.18971 1.555068,0.40496 1.13204,0.49012 5.141826,0.55361 8.889082,0.14075 z m -5.4675,-11.32543 c 0.377821,-0.70596 1.554612,-0.90427 7.532049,-1.26929 2.49427,-0.15232 4.01952,-0.12492 4.413929,0.0792 0.560457,0.29018 0.539351,0.32769 -0.301338,0.5358 -0.497185,0.12308 -2.785865,0.37505 -5.085949,0.55994 -2.300096,0.18489 -4.790519,0.41956 -5.53427,0.52152 -1.289351,0.17672 -1.337024,0.15683 -1.024421,-0.42728 z m 0.04984,-1.42997 c -0.400595,-0.48269 -0.222943,-1.3635 0.275005,-1.3635 0.16509,0 0.437694,0.25695 0.605771,0.571 0.421253,0.78713 -0.326696,1.46012 -0.880776,0.7925 z m 12.196062,-1.36564 c -0.228777,-0.37018 0.60049,-0.73135 1.04644,-0.45573 0.176366,0.10899 0.242657,0.32441 0.147301,0.47869 -0.229979,0.37213 -0.958235,0.35812 -1.193741,-0.023 z m -9.677519,-1.03881 c -0.270319,-0.70447 0.295462,-1.21193 0.745983,-0.66909 0.273624,0.32969 0.251317,0.50878 -0.09968,0.80002 -0.368863,0.30613 -0.487895,0.28202 -0.646365,-0.13093 z m 7.898318,-0.42128 c -0.08735,-0.14132 0.03114,-0.51422 0.263262,-0.82865 0.330436,-0.4476 0.502168,-0.49273 0.791159,-0.20783 0.291199,0.28708 0.287693,0.46199 -0.01658,0.82864 -0.430881,0.51919 -0.799712,0.59306 -1.037799,0.20784 z m -5.735269,-1.22167 c -0.09065,-0.14661 0.07758,-0.56583 0.373698,-0.93155 0.466429,-0.57602 0.587853,-0.60547 0.90763,-0.22016 0.302476,0.36445 0.234952,0.53276 -0.373698,0.93156 -0.408587,0.26772 -0.817013,0.36678 -0.90763,0.22015 z m 4.417618,-0.67723 c 0.156397,-0.4692 0.830531,-0.55137 0.854144,-0.10404 0.0095,0.16573 -0.210256,0.34817 -0.486694,0.40542 -0.314188,0.0651 -0.451935,-0.0478 -0.36745,-0.30132 z m -14.20518,6.18612 c 1.214154,-1.31451 7.45023,-6.74221 7.746372,-6.74221 0.151882,0 0.872774,-0.43474 1.601998,-0.9661 1.662646,-1.21152 4.369913,-1.52264 6.024588,-0.69233 1.204335,0.60432 5.998276,5.23579 5.998276,5.79498 0,0.21082 0.101704,0.38334 0.225983,0.38339 0.124294,4e-5 0.178225,-4.0275 0.11984,-8.95011 -0.08565,-7.21771 -0.0095,-9.59452 0.394209,-12.27905 0.275196,-1.83088 0.621689,-4.14246 0.769957,-5.13682 0.148278,-0.99438 0.348406,-3.57069 0.444749,-5.72517 0.09639,-2.15447 0.243274,-4.86639 0.326547,-6.02648 0.08321,-1.16012 0.216674,-3.51607 0.296482,-5.23548 0.07981,-1.71939 0.238268,-3.27697 0.352168,-3.46127 0.1139,-0.18429 0.315366,-5.28612 0.447705,-11.33738 0.132337,-6.05127 0.320945,-12.73117 0.419117,-14.8442 0.0982,-2.11304 0.06663,-3.84189 -0.07003,-3.84189 -0.136727,0 -2.082039,0.89414 -4.322899,1.98699 -2.24087,1.09285 -4.345514,2.10123 -4.676959,2.24086 -1.387268,0.58438 -5.816459,1.82157 -9.117031,2.54663 -1.946237,0.42754 -3.809807,0.90406 -4.141263,1.05894 -1.043559,0.48762 -4.13664,1.14361 -6.327808,1.34202 -1.160095,0.10499 -2.48747,0.26502 -2.949722,0.35549 l -0.840456,0.16453 0.161222,3.01346 c 0.08873,1.65739 0.239606,3.14029 0.335398,3.29528 0.09575,0.15502 0.292571,5.26173 0.437279,11.34826 0.150467,6.32916 0.450733,12.48531 0.701456,14.38099 0.241115,1.82302 0.594749,5.00952 0.785876,7.08113 0.191116,2.07161 0.46916,4.85132 0.617874,6.17716 0.148704,1.32583 0.423922,4.17334 0.611594,6.32782 0.978501,11.23353 2.040392,18.53147 2.696439,18.53147 0.110361,0 0.529298,-0.35591 0.931083,-0.79091 z m -9.24349,-7.34853 c 1.678232,-0.36256 2.188976,-1.045 2.421537,-3.23558 0.193443,-1.82219 0.17745,-1.88326 -0.493017,-1.88302 -0.381117,1.2e-4 -1.709916,0.23741 -2.952873,0.52732 -1.624921,0.37897 -3.445304,0.51975 -6.478476,0.50104 -6.545305,-0.0404 -9.772711,-0.84769 -13.629089,-3.40917 -1.572806,-1.04468 -1.792288,-1.30477 -1.664622,-1.97266 0.118226,-0.61844 0.02836,-0.7693 -0.458473,-0.7693 -1.170752,0 -1.170707,1.60298 1.38e-4,4.97185 0.670347,1.92879 1.753578,3.34807 2.772805,3.63302 0.343709,0.0962 1.302905,0.43559 2.131544,0.75445 2.56346,0.98643 7.30043,1.47801 12.504972,1.29771 2.568801,-0.089 5.199293,-0.27604 5.845554,-0.41566 z m -0.572371,-5.82682 c 2.88799,-0.70487 3.145981,-0.8896 2.398617,-1.71759 -0.538204,-0.59626 -0.585271,-1.05961 -0.529937,-5.21624 0.06822,-5.12219 0.337642,-8.86236 0.652434,-9.0569 0.11559,-0.0714 0.240478,-0.91982 0.277544,-1.88529 0.03698,-0.96549 0.222594,-2.1378 0.412264,-2.60513 0.256482,-0.63193 0.259458,-1.48141 0.01159,-3.31457 -0.954718,-7.06143 -1.354696,-19.00573 -0.67255,-20.0844 0.179213,-0.28341 0.167003,-0.51437 -0.0338,-0.63846 -0.361072,-0.22316 -0.826439,-5.21386 -0.84578,-9.07028 l -0.01307,-2.61967 -7.132392,-0.0225 c -4.203458,-0.0133 -7.279246,-0.14446 -7.489983,-0.31935 -0.19667,-0.16321 -0.775999,-0.21309 -1.287394,-0.11082 -0.511396,0.10226 -1.581679,0.0369 -2.378406,-0.14542 -0.796715,-0.18226 -2.533358,-0.39072 -3.859178,-0.46323 -3.28911,-0.17987 -5.272397,-0.48755 -6.221732,-0.96525 -0.438828,-0.2208 -1.405962,-0.53775 -2.149197,-0.7043 -1.514075,-0.33931 -5.212192,-1.97589 -5.493548,-2.43115 -0.100448,-0.16256 -0.310296,-0.29558 -0.466241,-0.29558 -0.374184,0 -0.357171,1.82154 0.03804,4.06787 0.17493,0.99438 0.504301,3.02831 0.731937,4.51987 0.690414,4.52391 1.341958,8.0182 1.938401,10.3957 0.31181,1.24296 0.65807,2.87011 0.769451,3.6159 0.502581,3.36517 4.148565,15.84017 5.75211,19.68129 0.402383,0.96387 0.731606,1.92156 0.731606,2.12821 0,0.20665 0.336068,1.07236 0.746822,1.92383 0.410754,0.85144 1.225383,3.21585 1.810271,5.25424 0.584897,2.03838 1.197993,4.12256 1.362446,4.63152 0.164452,0.50895 0.301082,1.25471 0.30361,1.65727 0.0068,1.11353 0.29451,1.38599 2.695134,2.5543 1.548834,0.75377 3.045791,1.20472 4.957399,1.49334 3.623081,0.54705 10.224327,0.41631 12.983592,-0.25713 z m 8.587753,-58.01517 c 3.743219,-0.78487 5.057873,-1.1063 7.081123,-1.73136 1.457396,-0.45025 4.821869,-1.36366 7.166639,-1.94566 0.627088,-0.15562 1.372858,-0.40659 1.65729,-0.55768 0.28442,-0.15108 1.167608,-0.43997 1.962623,-0.64198 0.795027,-0.202 1.758055,-0.61314 2.140074,-0.91363 0.382029,-0.30051 1.426514,-0.83389 2.321072,-1.18532 0.894559,-0.35144 2.440063,-1.1494 3.43442,-1.77327 0.994378,-0.62387 2.146949,-1.22083 2.561263,-1.32656 1.262869,-0.32228 2.710647,-1.36746 3.019511,-2.17982 0.160913,-0.42324 0.281773,-1.67745 0.268585,-2.78712 -0.01318,-1.10968 0.134081,-2.69559 0.327269,-3.52423 0.212519,-0.91161 0.323262,-3.52966 0.280414,-6.62914 -0.03889,-2.81739 -0.07768,-5.96998 -0.08608,-7.0058 -0.0095,-1.18129 -0.141169,-1.88327 -0.353071,-1.88327 -0.185823,0 -1.324558,0.3356 -2.530541,0.74578 -3.054993,1.03907 -7.212792,1.25826 -12.124278,0.63916 -2.098659,-0.26452 -4.692494,-0.48096 -5.764098,-0.48096 -2.481626,0 -5.0285,-1.08128 -5.891072,-2.50105 -1.385281,-2.28018 -2.468638,-6.59286 -2.967161,-11.81188 -0.06333,-0.66291 -0.307864,-2.56126 -0.543454,-4.21855 -0.44577,-3.13588 -0.952475,-11.30541 -1.214813,-19.58609 -0.15017,-4.74048 -0.860584,-12.3876 -1.315653,-14.16225 -0.192486,-0.75067 -0.268884,-0.5207 -0.450478,1.35595 -0.629373,6.50428 -1.444388,13.36341 -1.826024,15.36756 -0.581297,3.05276 -1.017429,6.9023 -1.536228,13.5596 -1.09341,14.03082 -1.425153,15.30139 -4.506431,17.2599 -1.722203,1.09467 -3.355711,1.44678 -7.023401,1.51391 -2.519966,0.0462 -3.779482,-0.0887 -5.782892,-0.61836 -3.605692,-0.95354 -9.584036,-2.17567 -12.956966,-2.64876 -1.574411,-0.22081 -4.204472,-0.68828 -5.84455,-1.03881 -3.648122,-0.7797 -4.135168,-0.73072 -4.453299,0.44769 -0.53964,1.99893 -1.17359,23.79249 -0.713739,24.53653 0.155376,0.25141 0.535746,2.52924 1.071423,6.41621 0.316638,2.29766 1.431211,4.74539 2.463681,5.4106 0.611901,0.39424 1.955804,0.92422 5.969868,2.35426 1.950044,0.69474 4.657194,1.19531 6.498465,1.20164 1.005366,0.003 2.632519,0.15601 3.615895,0.33904 2.397469,0.44624 11.117744,0.80785 17.607495,0.7302 4.088075,-0.049 5.984239,-0.2122 8.437096,-0.72648 z m -8.233624,-3.89405 c -0.445227,-0.49196 -0.448074,-0.60785 -0.02961,-1.20529 0.254639,-0.36355 0.717346,-0.66099 1.028227,-0.66099 0.812838,0 1.079171,1.11847 0.435665,1.82953 -0.649532,0.71774 -0.814182,0.72196 -1.434271,0.0367 z m -0.467549,-5.51215 c -0.645395,-0.60127 -0.653366,-0.661 -0.160774,-1.20531 0.714582,-0.7896 1.466552,-0.71657 2.067646,0.20081 0.939798,1.43432 -0.583953,2.23698 -1.906872,1.0045 z m -0.337321,-6.44699 c -0.301275,-0.36303 -0.277837,-0.59702 0.120721,-1.20531 0.608996,-0.92944 1.250575,-0.96573 1.715491,-0.097 0.299734,0.56004 0.251562,0.73916 -0.324102,1.2053 -0.820681,0.66453 -1.02996,0.67797 -1.51211,0.097 z m -0.242304,-6.84158 c -0.504016,-0.50402 -0.451617,-1.43073 0.09271,-1.63962 0.249865,-0.0959 0.794551,0.0487 1.210395,0.32107 0.624764,0.40935 0.701022,0.59829 0.439056,1.08778 -0.356009,0.6652 -1.196423,0.77653 -1.742179,0.23077 z m 0.165728,-4.78507 c -0.652923,-0.38029 -0.69071,-1.4387 -0.06003,-1.68072 0.692225,-0.26563 2.035849,1.07959 1.60129,1.60319 -0.395152,0.47613 -0.820233,0.49751 -1.541295,0.0776 z m -0.394389,-7.642 c -0.458222,-0.34025 -0.515291,-0.54801 -0.263454,-0.95915 0.627663,-1.02473 1.27669,-1.21015 1.934248,-0.5526 0.559582,0.55959 0.570294,0.65892 0.137768,1.27645 -0.54604,0.77957 -0.996666,0.8382 -1.808562,0.2353 z m 39.534015,0.40693 c 1.87881,-0.64783 3.593708,-1.17788 3.810903,-1.17788 0.217204,0 0.966534,-0.37066 1.665196,-0.82368 1.83023,-1.18673 2.41181,-2.93353 3.08658,-9.2707 0.47362,-4.44795 0.52671,-7.04701 0.40315,-19.73675 -0.0782,-8.03784 -0.12497,-16.38129 -0.10372,-18.54099 l 0.0385,-3.92674 -2.36239,-0.68652 c -1.29932,-0.37758 -3.125149,-1.01738 -4.05738,-1.42177 -0.932221,-0.40438 -1.910521,-0.73525 -2.173996,-0.73525 -0.263463,0 -0.618363,-0.26033 -0.78865,-0.57852 -0.170287,-0.31819 -0.796864,-0.73933 -1.3924,-0.93588 -0.595547,-0.19654 -1.512486,-0.73462 -2.037661,-1.19572 -0.525165,-0.46111 -1.49661,-1.13211 -2.158756,-1.49112 -1.279426,-0.6937 -3.683219,-2.39 -5.142677,-3.62906 -1.351486,-1.14738 -6.60836,-6.501958 -9.470166,-9.646159 -1.408702,-1.547702 -3.103643,-3.33016 -3.766554,-3.961032 -1.667077,-1.586492 -5.572909,-4.605634 -6.737128,-5.207671 -0.956694,-0.494723 -0.963008,-0.493209 -0.799532,0.191624 0.09065,0.379653 0.222784,2.249634 0.293708,4.155513 0.144527,3.884829 0.519925,7.669416 1.225452,12.354305 0.262051,1.74015 0.595939,5.67245 0.741965,8.73842 0.245612,5.1568 1.053709,14.15134 1.344442,14.96427 0.06875,0.19251 0.205196,3.58241 0.302986,7.53312 0.195685,7.90554 0.616641,15.07756 1.075972,18.33209 2.11086,14.95596 2.116874,14.97521 5.141688,16.47843 1.294059,0.6431 2.093622,0.81757 3.888924,0.8486 1.242964,0.0216 3.683686,0.22578 5.423834,0.45401 4.92411,0.64574 8.400231,0.3452 12.54774,-1.08494 z m -41.59929,-3.15643 c 0.942114,-0.25835 2.054421,-0.87941 2.886078,-1.61148 1.23071,-1.08333 1.385811,-1.37702 1.713548,-3.24508 0.414442,-2.36232 0.877438,-6.62596 1.237384,-11.39503 0.380329,-5.03913 0.913486,-10.09034 1.224474,-11.60099 0.153528,-0.74579 0.691615,-4.88146 1.195717,-9.1904 0.504112,-4.30895 1.191774,-10.00399 1.52814,-12.65563 0.691912,-5.45463 0.798512,-9.76796 0.301615,-12.20366 -0.185961,-0.9115 -0.41408,-3.14885 -0.50695,-4.971852 -0.09278,-1.823015 -0.2934,-3.726989 -0.445653,-4.231049 -0.152243,-0.50406 -0.279097,-1.860025 -0.281881,-3.013253 -0.0021,-1.153216 -0.08725,-3.424363 -0.187726,-5.04697 L 62.06845,83.958737 59.514381,81.183781 c -1.404761,-1.526228 -2.807678,-3.317342 -3.117609,-3.980253 -0.645348,-1.380338 -0.7364,-3.086482 -0.224653,-4.209642 0.294956,-0.647353 0.246041,-0.985117 -0.30132,-2.081126 -0.781785,-1.565359 -0.829412,-3.036042 -0.154702,-4.776809 0.611819,-1.5785 1.237944,-2.341369 1.921674,-2.341369 0.285484,0 0.687865,-0.20339 0.894166,-0.451981 0.206323,-0.248592 0.614113,-0.451994 0.906217,-0.451994 0.534643,0 1.689223,-1.422224 1.394143,-1.717305 -0.08714,-0.08712 -1.14883,0.05786 -2.359351,0.322162 -3.16847,0.691827 -7.957293,0.740217 -9.191764,0.09282 -0.530393,-0.278122 -1.149002,-0.505679 -1.374702,-0.505679 -0.225689,0 -0.971656,-0.271186 -1.657686,-0.60264 -0.68604,-0.331468 -1.398275,-0.602654 -1.582736,-0.602654 -0.657354,0 -5.288433,-3.035405 -6.437205,-4.219209 -1.110974,-1.144854 -2.414883,-1.593055 -2.647803,-0.910146 -0.05524,0.161981 -1.812355,2.026416 -3.904689,4.143212 -5.132327,5.192311 -9.303381,9.766733 -9.303381,10.203055 0,0.196954 -0.576277,0.955244 -1.28063,1.685097 -1.94394,2.014321 -5.399517,6.167089 -6.306156,7.578494 -0.443839,0.690939 -1.137145,1.663051 -1.540667,2.160233 -0.403512,0.497183 -1.707569,2.327726 -2.897876,4.067877 -1.1903182,1.74015 -2.8021539,4.076417 -3.5818549,5.191696 -0.7797116,1.115281 -2.0123732,3.180105 -2.7392539,4.588498 -1.2646859,2.450445 -1.3151375,2.648598 -1.1715839,4.601367 0.1290679,1.755825 0.3201465,2.292955 1.3690409,3.848585 1.9105698,2.83356 6.8644388,7.29549 9.6888678,8.72674 2.330766,1.18109 8.757174,5.53877 10.870709,7.37134 4.294375,3.72344 5.998309,4.77081 9.102615,5.59516 1.961126,0.52078 2.546889,0.51311 5.431564,-0.0713 1.368415,-0.2772 4.711176,-3.37562 6.485311,-6.01126 1.705916,-2.53429 3.990467,-6.98629 3.990467,-7.7764 0,-0.70971 -1.191753,-2.61491 -2.056881,-3.28827 -0.443143,-0.34489 -1.577498,-1.30546 -2.520808,-2.13459 -2.362426,-2.07646 -5.522605,-4.4572 -6.417502,-4.83467 -0.409354,-0.17264 -1.521671,-0.986219 -2.471849,-1.807928 -0.950166,-0.821721 -2.342769,-1.883408 -3.09467,-2.359281 -2.812904,-1.780302 -5.133661,-3.875793 -5.133661,-4.635321 0,-0.791755 3.473652,-4.535168 3.854739,-4.154082 0.116995,0.116995 -0.193972,0.578669 -0.69104,1.025935 -0.497069,0.447266 -1.159399,1.294228 -1.471835,1.882133 -0.531884,1.000834 -0.536462,1.117118 -0.07198,1.826019 0.272848,0.416413 1.274253,1.279989 2.225352,1.919046 0.951089,0.639058 2.610632,1.85563 3.687871,2.703506 1.077241,0.847876 2.907784,2.15378 4.067887,2.902046 1.160093,0.748247 2.303594,1.597017 2.541093,1.886157 0.23751,0.28914 0.928676,0.77918 1.53593,1.08897 0.607253,0.30979 1.32869,0.90605 1.603201,1.325 0.274501,0.41897 1.241398,1.32217 2.148629,2.00714 2.028203,1.53131 3.470815,3.75744 3.470815,5.35592 0,0.6328 0.08473,1.23523 0.188175,1.33872 0.393887,0.39389 1.594751,4.32518 1.606984,5.26079 0.01424,1.09187 0.299976,1.19989 1.351443,0.51093 0.534321,-0.35009 0.77058,-0.3781 0.935681,-0.11104 0.128793,0.20841 -0.01663,0.48616 -0.348755,0.66631 -0.699184,0.3792 -2.8314,2.55581 -4.605262,4.70115 -2.570029,3.10825 -8.716344,7.26488 -10.742419,7.26488 -1.421895,0 -3.319928,-0.94157 -4.31944,-2.14281 -0.930987,-1.11886 -0.977009,-1.26447 -0.538386,-1.7031 0.438622,-0.43862 0.496214,-0.43642 0.673604,0.0259 0.311537,0.81184 0.732141,0.58291 0.732141,-0.39849 0,-0.69583 -0.135491,-0.90397 -0.588462,-0.90397 -0.323665,0 -0.899942,-0.11825 -1.280631,-0.26278 -0.380688,-0.14455 -1.215441,-0.42986 -1.855006,-0.63406 -1.335056,-0.42623 -2.861396,-1.4063 -4.145797,-2.66205 -0.490144,-0.47919 -1.252238,-1.06094 -1.693549,-1.29277 -0.441309,-0.23185 -1.494758,-1.13341 -2.340989,-2.00348 -0.846245,-0.87007 -1.740163,-1.58194 -1.986487,-1.58194 -0.616104,0 -1.378459,2.47529 -1.948894,6.32781 -0.257656,1.74015 -0.590444,3.97748 -0.739522,4.97185 -0.149077,0.99437 -0.483527,3.5029 -0.743223,5.5745 -0.425855,3.39711 -1.012598,6.46496 -1.950122,10.19648 -0.18067,0.71907 -0.619976,1.87164 -0.976236,2.56126 -0.356271,0.68962 -0.748029,1.79624 -0.870582,2.45915 -0.122542,0.66293 -0.503868,2.49347 -0.847371,4.0679 -0.989094,4.53335 -0.889705,5.00664 1.321822,6.29454 1.679985,0.97835 4.431755,1.74488 7.062565,1.96733 1.230396,0.10404 3.264326,0.44725 4.519867,0.76267 1.255552,0.31542 3.096391,0.6594 4.090768,0.7644 1.732554,0.18295 7.507623,1.30035 13.258286,2.56528 1.491547,0.3281 2.983106,0.65007 3.314562,0.7155 0.9912,0.19565 4.412166,-0.13481 6.052757,-0.5847 z M 40.9045,128.90203 c 0.828639,-0.30891 1.998446,-0.74908 2.599561,-0.97816 1.377695,-0.52503 3.455429,-2.21036 6.062359,-4.91741 l 2.032771,-2.11086 0.0012,-2.12991 c 0.0012,-1.98927 -0.6538,-5.08388 -1.196651,-5.65462 -0.131528,-0.13829 -0.76329,0.78557 -1.403936,2.05299 -2.466895,4.88042 -7.363249,9.70583 -10.637826,10.48368 l -1.525372,0.36233 v 1.56388 c 0,1.23604 0.110583,1.59277 0.527316,1.70168 1.070453,0.27975 2.071253,0.17414 3.540571,-0.3736 z m 70.58996,-14.48816 c 4.05032,-0.4267 5.96163,-1.44396 7.24817,-3.85775 0.79294,-1.48773 0.95824,-2.13435 0.95824,-3.74849 0,-3.10347 -0.49905,-4.96143 -2.28533,-8.508239 -0.91899,-1.824742 -1.79877,-3.521101 -1.95506,-3.769703 -0.15629,-0.248582 -1.36001,-2.214727 -2.67493,-4.369206 -1.31494,-2.154469 -3.55539,-5.612166 -4.97879,-7.683771 -4.04557,-5.887908 -4.70396,-6.918306 -5.46929,-8.559582 -1.10875,-2.377756 -1.81478,-3.50686 -2.92405,-4.676245 -0.561934,-0.592404 -1.875185,-2.433049 -2.918309,-4.090336 -1.043146,-1.657287 -2.195472,-3.487829 -2.560743,-4.067887 -0.365271,-0.580047 -0.920744,-1.474579 -1.234399,-1.987843 -2.042093,-3.341622 -3.863282,-5.623213 -7.217659,-9.042289 -2.096556,-2.136988 -4.227394,-4.461718 -4.735184,-5.166061 -0.5078,-0.704353 -1.03322,-1.28063 -1.167629,-1.28063 -0.1344,0 -0.667779,0.915272 -1.185282,2.033944 -1.628012,3.519262 -3.684589,6.793008 -5.313408,8.458142 -1.847651,1.888818 -5.303239,4.51668 -6.502091,4.94462 -1.07254,0.38284 -0.898948,0.957637 0.325855,1.078983 0.610881,0.06048 1.255196,-0.136777 1.826843,-0.559422 0.704069,-0.520529 1.120946,-0.612732 2.056077,-0.454737 1.968491,0.332571 5.522644,3.630803 5.522644,5.124982 0,0.360918 0.591339,1.79993 1.314102,3.197795 0.722752,1.397876 1.697236,3.558564 2.165514,4.801533 1.12627,2.989507 1.213953,3.08777 2.55322,2.861511 1.077438,-0.182036 1.166428,-0.12261 3.187607,2.128606 1.143569,1.273729 3.186311,3.46536 4.539424,4.87031 1.353113,1.404937 3.387044,3.703542 4.51986,5.108012 1.132837,1.404472 2.828713,3.387143 3.768659,4.405964 0.939936,1.018805 1.635961,1.970499 1.546747,2.114854 -0.23255,0.376274 -2.612581,-2.029468 -4.203696,-4.249113 -1.472295,-2.053874 -2.852209,-3.641737 -6.602802,-7.597764 -1.335537,-1.408685 -3.023867,-3.290647 -3.751848,-4.182117 L 84.02331,76.071087 81.689804,76.23103 c -2.232901,0.153051 -3.561561,0.61354 -6.283643,2.177804 -1.07933,0.620248 -2.767852,2.389656 -4.600805,4.82119 -2.551254,3.384398 -3.496779,5.273181 -2.639744,5.273181 0.160924,0 1.383017,1.118662 2.715769,2.485923 1.332752,1.36727 3.092963,3.163909 3.911571,3.992559 0.818607,0.828628 1.982603,2.111474 2.586641,2.850738 1.917226,2.346415 7.723674,7.552775 10.452323,9.372085 3.142984,2.09558 6.180656,3.89804 6.569306,3.89804 0.154368,0 0.938449,0.40475 1.742423,0.89943 1.45764,0.8969 5.586175,2.25382 7.587025,2.49361 2.01791,0.24185 4.98923,0.21058 7.76379,-0.0818 z M 67.426281,86.469262 c 0.790883,-1.244779 2.826397,-3.941315 4.342804,-5.753076 1.526918,-1.824348 4.236651,-3.844409 6.578435,-4.904111 1.157715,-0.5239 1.533793,-0.839388 1.394218,-1.169603 -0.1051,-0.248705 -0.333687,-0.858977 -0.507937,-1.35616 -0.385633,-1.100405 -2.893156,-6.232995 -3.209308,-6.569062 -0.124804,-0.132678 -0.422274,0.13852 -0.661042,0.602653 -1.001657,1.947208 -2.487002,4.005 -3.010891,4.171274 -0.345802,0.109786 -0.562263,0.460647 -0.562263,0.911467 0,0.844137 -0.400468,0.913302 -1.616397,0.279159 -0.474697,-0.247566 -1.017078,-0.45501 -1.205302,-0.460967 -0.918331,-0.02904 -3.626896,-3.543611 -6.319732,-8.200257 -0.936546,-1.619534 -1.307587,-1.773373 -1.587481,-0.658208 -0.566641,2.257675 1.384878,6.283982 4.281688,8.833854 0.779809,0.686428 1.356716,1.309181 1.281997,1.383903 -0.328288,0.328289 -2.158968,-1.175229 -3.687883,-3.028811 -1.992879,-2.416067 -2.567428,-3.553576 -2.80407,-5.5516 -0.11494,-0.970518 -0.322241,-1.506456 -0.582687,-1.506456 -0.995983,0 -0.879777,3.33299 0.189277,5.428524 0.338958,0.664413 1.765259,2.364784 3.169531,3.778582 1.404293,1.413809 2.55324,2.637268 2.55324,2.718811 0,0.415184 -1.582103,-0.808127 -3.692113,-2.854792 -2.356025,-2.285302 -4.142326,-5.143602 -4.142326,-6.628283 0,-0.90164 -0.558551,-0.786522 -0.940014,0.193743 -0.579192,1.488406 -0.133396,4.547237 0.955179,6.553814 1.252667,2.30907 1.600307,2.700634 3.544016,3.991879 0.965823,0.641625 1.491422,1.172427 1.325344,1.338507 -0.422379,0.422371 -3.815312,-1.978651 -4.607575,-3.260557 -0.636372,-1.029682 -0.71099,-1.069417 -0.960037,-0.511305 -0.450055,1.008625 0.272178,2.875189 1.912534,4.942752 1.588044,2.001624 7.497957,8.112964 7.845586,8.112964 0.108194,0 0.433645,-0.372888 0.723209,-0.828638 z m 4.278011,-16.035749 c 0.918502,-0.560036 2.49661,-2.657575 2.49661,-3.318366 0,-0.169031 -0.468533,-0.307312 -1.041169,-0.307312 -0.849829,0 -1.339978,-0.291742 -2.667183,-1.587509 -0.894314,-0.873133 -1.809,-2.093494 -2.032623,-2.711921 -0.299947,-0.829492 -0.578641,-1.124412 -1.062572,-1.124412 -0.805037,0 -2.838851,-0.823479 -2.838851,-1.149434 0,-0.130536 -1.118672,-1.235075 -2.485918,-2.454503 -2.738851,-2.442728 -6.189408,-6.751907 -6.162337,-7.695742 0.06514,-2.270178 -0.121996,-3.883437 -0.401928,-3.465234 -0.1664,0.248592 -0.284432,1.265563 -0.262281,2.25994 0.0221,0.994365 -0.04726,2.018512 -0.154259,2.275861 -0.351557,0.845574 0.6365,2.499842 3.348649,5.606597 1.46984,1.683697 2.871433,3.438073 3.114632,3.898595 0.243198,0.460523 0.747279,1.144627 1.120159,1.520226 0.372901,0.375608 0.677991,0.825289 0.677991,0.999307 0,0.174008 0.579691,1.163248 1.288214,2.198294 0.708512,1.035057 1.488193,2.281453 1.732614,2.769788 1.307832,2.612896 3.354408,3.490562 5.330252,2.285825 z m 3.701902,-5.573898 c 0,-1.087435 -0.1727,-1.522241 -0.900171,-2.266444 -1.383857,-1.415665 -3.013388,-2.414484 -3.939126,-2.414484 -1.632646,0 -1.323985,2.48875 0.573474,4.624041 0.665867,0.749338 2.093644,1.347936 3.286513,1.377878 0.962328,0.02415 0.97931,0.0012 0.97931,-1.320991 z M 56.711531,61.073743 c 2.746156,-0.356373 3.330557,-0.531007 3.315264,-0.990687 -0.0064,-0.195998 -1.019553,-1.503084 -2.25119,-2.904628 -1.231636,-1.401556 -2.629933,-3.299906 -3.107334,-4.218548 -0.798743,-1.536988 -0.849991,-1.826546 -0.642377,-3.628879 0.273374,-2.373211 0.730286,-4.17912 1.168133,-4.616967 0.440832,-0.440844 0.408819,-0.806875 -0.07061,-0.806875 -0.458941,0 -1.532411,1.363915 -1.842546,2.341095 -0.117338,0.369687 -0.306902,0.672158 -0.421266,0.672158 -0.114354,0 -0.158098,1.096966 -0.09726,2.437717 0.118568,2.611008 -0.229617,3.560501 -0.868144,2.367392 -0.598952,-1.11915 -0.223559,-4.945713 0.593609,-6.051003 0.724683,-0.980188 0.609521,-1.488052 -0.222806,-0.982624 -1.007315,0.611673 -1.718251,2.56413 -1.716657,4.714444 0.0012,2.095829 -0.117292,2.350126 -0.744976,1.593818 -0.565845,-0.681816 -0.467789,-2.885451 0.195086,-4.383991 0.604897,-1.367481 2.317624,-3.411411 3.05907,-3.650631 0.287211,-0.0927 0.09566,-0.583839 -0.673182,-1.72637 -1.146723,-1.704015 -2.071447,-4.297483 -1.79198,-5.025753 0.263556,-0.686827 0.622195,-0.523434 0.848625,0.386634 0.113429,0.45575 0.602687,1.474761 1.087297,2.26445 0.484631,0.78971 0.881139,1.542784 0.881139,1.673515 0,0.498709 1.998867,2.098586 2.862581,2.291191 3.191987,0.711767 4.087906,0.82119 5.530264,0.675437 0.887173,-0.08962 1.847014,-0.374754 2.132985,-0.63355 0.285984,-0.258806 0.804517,-0.470555 1.152327,-0.470555 0.470351,0 0.850287,-0.443918 1.482891,-1.732613 0.78713,-1.603453 0.849468,-1.99094 0.836344,-5.197846 -0.01148,-2.801391 -0.145271,-3.840457 -0.698363,-5.423842 -1.023773,-2.930823 -2.872561,-5.843731 -5.686257,-8.959107 -2.891306,-3.201302 -2.620169,-3.821984 0.331381,-0.758608 5.356661,5.559595 7.411325,9.698013 7.504226,15.114703 0.02976,1.732554 -0.128895,2.724961 -0.654431,4.09473 -0.989946,2.580156 -1.091679,3.163914 -0.551317,3.163914 0.248576,0 0.525111,-0.279658 0.614484,-0.621466 0.155441,-0.59442 0.224155,-0.578032 1.578639,0.376656 2.505015,1.765604 3.961539,5.805954 2.618373,7.26328 -0.337247,0.365916 -0.660606,0.90976 -0.718586,1.208541 -0.186259,0.959891 -0.705239,0.560548 -0.795697,-0.612277 -0.119584,-1.550849 -0.921274,-3.963442 -1.67307,-5.035011 -0.341689,-0.487036 -0.595324,-1.198918 -0.563623,-1.581963 0.07333,-0.8859 -0.411743,-0.911457 -0.641265,-0.03383 -0.102551,0.391757 0.05824,1.038462 0.393061,1.58195 0.939681,1.525282 1.849393,4.116085 1.657534,4.72056 -0.203868,0.642308 -0.915441,0.761137 -1.145388,0.191284 -0.08364,-0.207171 -0.162688,-0.07152 -0.17576,0.301321 -0.0272,0.774404 -0.389893,0.874101 -0.908171,0.249605 -0.273262,-0.329269 -0.272571,-0.561188 0.0031,-1.002441 0.300935,-0.481864 0.153475,-0.993726 -0.918299,-3.187511 -1.082105,-2.214863 -1.388352,-2.613467 -2.007981,-2.613467 -0.402125,0 -0.807342,0.198585 -0.900477,0.441299 -0.192465,0.501545 0.814207,2.112492 1.907236,3.052067 0.73154,0.628858 1.4795,2.834451 0.961201,2.834451 -0.148269,0 -0.269586,0.263192 -0.269586,0.584863 0,0.68094 -0.537545,1.107398 -0.917258,0.72769 -0.144155,-0.144157 -0.311456,-1.119527 -0.371795,-2.167499 -0.0696,-1.208562 -0.263975,-2.000746 -0.531563,-2.166131 -0.584006,-0.36094 -0.698246,-0.15484 -0.313071,0.564866 0.460319,0.860104 0.404017,1.552238 -0.126249,1.552238 -0.248586,0 -0.451986,-0.263193 -0.451986,-0.584865 0,-0.321671 -0.135601,-0.668672 -0.301329,-0.771091 -0.376004,-0.232385 -0.371243,0.235403 0.01955,1.931241 0.204909,0.888953 0.206175,1.428684 0.0031,1.631025 -0.410128,0.410129 -0.866046,-0.853943 -1.227694,-3.403872 -0.344431,-2.42864 -0.547704,-3.020987 -1.036704,-3.020987 -0.400914,0 -0.413274,2.07156 -0.0272,4.559582 0.14134,0.910863 0.101704,1.466675 -0.114187,1.600082 -0.467077,0.288667 -0.93341,-1.104904 -1.219117,-3.64316 -0.288342,-2.561683 -0.41746,-2.817825 -1.420467,-2.817825 -0.608619,0 -0.725164,0.109332 -0.562263,0.527318 0.49102,1.259937 1.095907,4.066225 1.008703,4.679662 -0.05228,0.367865 -0.298491,0.668855 -0.547089,0.668855 -0.347215,0 -0.470498,-0.454008 -0.531859,-1.958607 -0.07863,-1.929442 -0.515799,-3.314574 -1.045974,-3.314574 -0.148896,0 -0.195783,0.237293 -0.104205,0.527317 0.09156,0.290022 0.193174,1.531841 0.225734,2.759605 0.05421,2.042737 0.1582,2.380523 1.225033,3.9781 0.641189,0.960211 2.309797,2.784421 3.70801,4.053823 2.221785,2.017099 2.644293,2.282364 3.352209,2.104689 1.926344,-0.483494 6.946916,-4.568577 8.503461,-6.919035 2.510499,-3.79095 4.422805,-8.254548 4.723091,-11.024369 0.11678,-1.077241 0.274474,-2.067016 0.350435,-2.199522 0.19863,-0.346466 0.183178,-7.2053 -0.01743,-7.744189 -0.09257,-0.248591 -0.37865,-1.823539 -0.635791,-3.49989 -0.257131,-1.67634 -0.754144,-3.77807 -1.104473,-4.670529 -1.618948,-4.12424 -1.954686,-4.839731 -2.383836,-5.080168 -0.697311,-0.390676 -4.168564,-1.054977 -4.384462,-0.839059 -0.104362,0.10431 0.02742,0.499871 0.292976,0.878918 1.35881,1.939978 -0.137417,4.773632 -2.520572,4.773632 -1.544953,0 -2.216333,-0.331444 -3.842995,-1.897189 -1.123964,-1.081875 -1.294846,-1.428022 -1.470223,-2.978051 l -0.198428,-1.753897 -3.350976,0.0022 c -3.103585,0.0022 -7.642826,0.369619 -9.603461,0.77715 -0.899315,0.186922 -1.075521,0.749635 -0.40818,1.303487 0.758426,0.629439 0.86368,2.306782 0.223138,3.555934 -0.685699,1.337221 -1.563981,2.196277 -3.138689,3.069992 -1.432032,0.79454 -4.678215,0.881675 -5.786753,0.155342 -1.074074,-0.703762 -1.963197,-2.406228 -1.963197,-3.759085 0,-0.653435 -0.128418,-1.188075 -0.285377,-1.188075 -0.156959,0 -0.922936,0.338995 -1.702159,0.753313 -0.779233,0.414319 -1.566086,0.75681 -1.748566,0.761081 -0.604521,0.01412 -2.409234,3.051393 -3.107496,5.229768 -1.369347,4.271984 -1.689185,6.635879 -1.512628,11.180006 0.176445,4.541212 0.915829,7.607127 2.476986,10.271044 0.949596,1.620365 3.84697,5.072138 5.577918,6.645207 1.635115,1.485991 4.959323,3.608208 6.363088,4.062284 0.560651,0.181353 1.561747,0.571448 2.224657,0.866882 1.212345,0.540288 4.173814,1.398081 5.574515,1.614659 1.311744,0.202832 1.903306,0.187127 4.205998,-0.111723 z m -8.815256,-9.222195 c -0.763723,-1.491605 -0.873065,-3.137799 -0.356328,-5.364462 0.266837,-1.149832 0.611604,-2.326861 0.766149,-2.61563 0.377032,-0.704491 1.788825,-1.685132 2.786516,-1.935536 1.205193,-0.302482 0.998408,0.323051 -0.319702,0.967113 -0.711905,0.347867 -1.329829,0.960974 -1.67019,1.657185 -0.701097,1.434092 -1.043838,5.8908 -0.527272,6.856022 0.248523,0.464372 0.270332,0.791066 0.0664,0.99498 -0.203914,0.203914 -0.448725,0.02016 -0.745593,-0.559672 z m 16.51157,-1.917893 c 0.102447,-0.165729 0.246036,-0.301321 0.319107,-0.301321 0.07311,0 0.13288,0.135592 0.13288,0.301321 0,0.165728 -0.143602,0.30132 -0.319118,0.30132 -0.175494,0 -0.235292,-0.135592 -0.132869,-0.30132 z m 4.575046,-0.960474 c -0.09628,-0.240379 -0.167588,-0.168972 -0.18204,0.182048 -0.01307,0.317652 0.05803,0.495622 0.158257,0.395494 0.100102,-0.100102 0.110807,-0.36003 0.0238,-0.577542 z m 2.833336,-3.283186 c -0.276323,-0.928437 -0.448449,-1.079747 -1.228279,-1.079747 -0.498809,0 -0.906917,0.0558 -0.906917,0.123988 0,0.06821 0.50848,1.164262 1.129957,2.435702 l 1.129968,2.311724 0.0983,-1.355956 c 0.05409,-0.745785 -0.04623,-1.841851 -0.223038,-2.435711 z m -1.06119,-0.18788 c -0.163528,-0.429454 -0.128916,-0.464063 0.168672,-0.168687 0.20593,0.204402 0.298522,0.447539 0.205738,0.540311 -0.09278,0.09282 -0.261254,-0.07448 -0.37441,-0.371624 z M 43.352262,23.110843 c 0.541724,-1.353917 2.905255,-3.610976 3.781303,-3.610976 0.801681,0 1.00547,0.77567 0.433236,1.649007 -0.575548,0.878407 -0.600136,1.062913 -0.141675,1.062913 1.150914,0 1.605366,-3.304381 0.621547,-4.519344 l -0.541621,-0.668877 -3.450919,0.691256 c -3.821574,0.765511 -4.487286,1.201262 -4.498858,2.944808 -0.01343,2.023478 1.128115,3.367246 3.08432,3.630666 0.125629,0.01697 0.446333,-0.513833 0.712667,-1.179453 z m 23.01419,-3.059925 c 0,-0.525574 -0.204155,-1.181162 -0.453655,-1.456869 -0.368597,-0.407304 -0.38983,-0.68439 -0.113199,-1.477849 0.242933,-0.696894 0.433252,-0.883724 0.66458,-0.65241 0.178278,0.17829 0.558384,0.324155 0.844665,0.324155 0.286291,0 0.803443,0.359689 1.149255,0.799313 0.345813,0.439624 0.717449,0.710606 0.825856,0.602197 0.336928,-0.336933 -0.579639,-1.702831 -1.142657,-1.702831 -0.293677,0 -0.617757,-0.135604 -0.72018,-0.30133 -0.102447,-0.165729 -0.924016,-0.301322 -1.825727,-0.301322 -1.588628,0 -1.639511,0.02574 -1.639511,0.830631 0,1.304 0.527619,2.817221 1.250626,3.586831 0.889394,0.946703 1.159969,0.888269 1.159969,-0.250516 z m -30.48111,-0.443223 c 0.440354,-0.105006 0.939507,-0.29901 1.109232,-0.431106 0.448472,-0.349051 7.807155,-2.388005 8.633584,-2.392196 0.385118,-0.0022 1.784987,-0.275082 3.110819,-0.606947 3.826528,-0.957796 18.644871,-1.410906 20.691714,-0.632696 0.438767,0.16682 1.96273,0.397828 3.386619,0.513365 2.855673,0.231703 3.108926,0.0558 1.986227,-1.379438 C 74.479456,14.264359 74.211283,13.789451 74.207596,13.623348 74.190703,12.865787 71.200574,8.3631606 69.982348,7.2610252 68.625133,6.0331234 65.541341,4.0969162 64.407845,3.7609738 64.07639,3.6626926 63.018771,3.2957482 62.057591,2.9454456 60.898633,2.5230628 59.215733,2.245931 57.061219,2.122662 53.893297,1.9413987 53.749309,1.9614893 51.275707,2.9295699 c -1.3952,0.5460401 -4.080074,1.7478612 -5.966386,2.6707398 -3.093065,1.5132656 -3.637419,1.9069249 -5.546749,4.011218 -1.164408,1.2833063 -2.400783,2.7982913 -2.7475,3.3666313 -0.346726,0.56835 -0.871789,1.369303 -1.166823,1.779908 -0.648447,0.902483 -1.723524,3.875681 -1.723524,4.766513 0,0.463894 0.133384,0.591231 0.479987,0.458223 0.263989,-0.101358 0.840276,-0.270094 1.28063,-0.375108 z"
       id="path34"
       inkscape:connector-curvature="0" />
    <path
       style="fill:none;stroke:#000000;stroke-width:0.865;stroke-linecap:round;stroke-linejoin:miter;stroke-opacity:1;stroke-miterlimit:4;stroke-dasharray:none"
       d="m 54.721703,51.307419 c -0.0063,-0.08829 0.07756,-0.124328 0.128622,-0.175395 0.392295,-0.392295 1.162796,-0.528357 1.695493,-0.350792"
       id="path104"
       inkscape:connector-curvature="0" />
  </g>
</svg>
