<svg id="Layer_1" enable-background="new 0 0 512 512" height="512" viewBox="0 0 512 512" width="512" xmlns="http://www.w3.org/2000/svg"><g id="FilledOutline"><path d="m169 207.3-49-127.3-56-32 16-24 64 32 55.3 147.4z" fill="#85bb40"/><path d="m248 488h116.3c27.2 0 52.4-14 66.8-37l56.9-91h-144z" fill="#f4cd87"/><path d="m448 264-7.4 77.2c-5.5 58-34.7 111.1-80.6 146.8h-208c-46-35.7-75.1-88.8-80.7-146.8l-7.3-77.2 56-80h272z" fill="#85bb40"/><path d="m448 264c-19.1 0-36.3-6.3-48-16.3-11.7 10-28.9 16.3-48 16.3s-36.3-6.3-48-16.3c-11.7 10-28.9 16.3-48 16.3s-36.3-6.3-48-16.3c-11.7 10-28.9 16.3-48 16.3s-36.3-6.3-48-16.3c-11.7 10-28.9 16.3-48 16.3l56-80h272z" fill="#f4cd87"/><path d="m165.3 394 58.7 94h-76.3c-27.2 0-52.4-14-66.8-37l-56.9-91h79.8c25 0 48.2 12.9 61.5 34z" fill="#f4cd87"/><path d="m436 184c0 7.3-9.4 12.1-12.8 18-3.5 6.1-3.1 16.6-9.2 20.1-5.9 3.4-14.7-2.1-22-2.1s-16.1 5.5-22 2.1c-6.1-3.5-5.7-14-9.2-20.1-3.4-5.9-12.8-10.7-12.8-18s9.4-12.1 12.8-18c3.5-6.1 3.1-16.6 9.2-20.1 5.9-3.4 14.7 2.1 22 2.1s16.1-5.5 22-2.1c6.1 3.5 5.7 14 9.2 20.1 3.4 5.9 12.8 10.7 12.8 18z" fill="#e53d5d"/><path d="m108 264c0 7.3-9.4 12.1-12.8 18-3.5 6.1-3.1 16.6-9.2 20.1-5.9 3.4-14.7-2.1-22-2.1s-16.1 5.5-22 2.1c-6.1-3.5-5.7-14-9.2-20.1-3.4-5.9-12.8-10.7-12.8-18s9.4-12.1 12.8-18c3.5-6.1 3.1-16.6 9.2-20.1 5.9-3.4 14.7 2.1 22 2.1s16.1-5.5 22-2.1c6.1 3.5 5.7 14 9.2 20.1 3.4 5.9 12.8 10.7 12.8 18z" fill="#e53d5d"/><path d="m286.4 35.1c-43.3-8.8-86.7 24.5-94.4 62.4l39.2 8c7.7-37.9 33.5-74.8 55.2-70.4z" fill="#56c3c1"/><path d="m286.4 35.1c21.6 4.4 30.9 48.5 23.2 86.4l39.2 8c7.7-37.9-19.1-85.6-62.4-94.4z" fill="#0093b9"/><path d="m286.4 35.1c-21.6-4.4-47.5 32.5-55.2 70.4l39.2 8z" fill="#0093b9"/><path d="m286.4 35.1-16 78.4 39.2 8c7.7-37.9-1.6-82-23.2-86.4z" fill="#56c3c1"/><path d="m400.8 337.4c-3.9 40.2-21.8 77.8-50.7 106.1-3 2.9-6.9 4.5-11.1 4.5h-19v16h19.1c8.3 0 16.3-3.2 22.3-9 31.5-31 51.1-72.1 55.4-116l1.7-18.2-15.9-1.5z"/><path d="m404.8 288h16.1v16h-16.1z" transform="matrix(.095 -.996 .996 .095 79.012 678.891)"/><path d="m495 356.1c-1.4-2.5-4.1-4.1-7-4.1h-40.6c.5-3.3.9-6.7 1.2-10l7.4-77.2c.2-1.9-.3-3.8-1.4-5.3l-28.5-40.7c.8-2.1 1.4-4.3 2-6.5.5-2.1 1.1-4.2 2.1-6.2 1.2-1.7 2.6-3.2 4.2-4.6 4.1-4 9.7-9.5 9.7-17.4s-5.6-13.4-9.7-17.4c-1.6-1.4-2.9-2.9-4.2-4.6-.9-2-1.6-4.1-2.1-6.2-1.5-5.8-3.4-13-10-16.8-6.5-3.8-13.6-1.9-19.2-.3-2.2.7-4.5 1.2-6.8 1.4-2.3-.2-4.6-.7-6.8-1.4-5.7-1.5-12.7-3.4-19.2.3-6.7 3.9-8.5 11-10 16.8-.5 2.1-1.1 4.2-2.1 6.2-1.2 1.7-2.6 3.2-4.2 4.6-2.6 2.5-5.7 5.5-7.7 9.4h-76.2l10.8-53.1 70.5 14.4c4.3.9 8.6-1.9 9.4-6.2 4.2-20.6-.6-43.9-13.1-63.9-13-20.7-32.2-34.7-54.2-39.6-.4-.1-.9-.2-1.3-.3-22.5-4.6-46.2.7-66.7 14.9-19.4 13.5-32.9 33-37.1 53.7-.9 4.3 1.9 8.6 6.2 9.4l70.5 14.4-11.4 56.2h-51.9l-46.1-122.8c-.7-1.9-2.1-3.4-3.9-4.3l-64-32c-3.6-1.8-8-.6-10.2 2.7l-16 24c-2.5 3.7-1.5 8.6 2.2 11.1.2.1.3.2.5.3l53.5 30.6 34.8 90.5h-28.4c-2.6 0-5.1 1.3-6.6 3.4l-26.7 38.1c-5.5-1.7-11.2-.2-16 1.1-2.2.7-4.5 1.2-6.8 1.4-2.3-.2-4.6-.7-6.8-1.4-5.7-1.5-12.7-3.4-19.2.3-6.7 3.9-8.5 11-10 16.8-.5 2.1-1.1 4.2-2.1 6.2-1.2 1.7-2.6 3.2-4.2 4.6-4.1 4-9.7 9.5-9.7 17.4s5.6 13.4 9.7 17.4c1.6 1.4 2.9 2.9 4.2 4.6.9 2 1.6 4.1 2.1 6.2 1.5 5.8 3.4 13 10 16.8 2.6 1.5 5.6 2.2 8.6 2.2 3.6-.2 7.2-.8 10.7-1.9 1-.3 2-.5 3-.8l3.2 33.4c.3 3.3.7 6.7 1.2 10h-40.6c-4.4 0-8 3.6-8 8 0 1.5.4 3 1.2 4.2l56.9 91c15.8 25.5 43.7 40.9 73.6 40.8h76.3c4.4 0 8-3.6 8-8 0-1.5-.4-3-1.2-4.2l-58.7-94c-14.6-23.6-40.5-37.9-68.2-37.8h-23.1c-.6-3.8-1.1-7.7-1.4-11.6l-2.8-29.7c4.4.8 9.1.9 13.5-1.7 6.7-3.9 8.5-11 10-16.8.5-2.1 1.1-4.2 2.1-6.2 1.2-1.7 2.6-3.2 4.2-4.6 4.1-4 9.7-9.5 9.7-17.4s-5.6-13.4-9.7-17.4c-1.6-1.4-2.9-2.9-4.2-4.6-.9-2-1.6-4.1-2.1-6.2-.5-2.2-1.2-4.4-2-6.5l26.1-37.3h217.8c2 3.9 5.1 6.9 7.7 9.4 1.6 1.4 2.9 2.9 4.2 4.6.9 2 1.6 4.1 2.1 6.2 1.5 5.8 3.4 13 10 16.8 2.6 1.5 5.6 2.2 8.6 2.2 3.6-.2 7.2-.8 10.7-1.9 2.2-.7 4.5-1.2 6.8-1.4 2.3.2 4.6.7 6.8 1.4 4.7 1.3 10.4 2.8 16 1.1l16.6 23.7c-9.6-2-18.6-6.3-26.2-12.5-3-2.5-7.4-2.5-10.4 0-10.7 9.1-26.3 14.4-42.8 14.4s-32.1-5.2-42.8-14.4c-3-2.5-7.4-2.5-10.4 0-10.7 9.1-26.3 14.4-42.8 14.4s-32.1-5.2-42.8-14.4c-3-2.5-7.4-2.5-10.4 0-10.7 9.1-26.3 14.4-42.8 14.4-9.9.1-19.7-1.9-28.8-5.8l-6.4 14.7c11.1 4.7 23.1 7.1 35.2 7.1 17.8 0 34.9-5.1 48-14.2 13.1 9.1 30.2 14.2 48 14.2s34.9-5.1 48-14.2c13.1 9.1 30.2 14.2 48 14.2s34.9-5.1 48-14.2c10.9 7.6 24.7 12.4 39.2 13.8l-6.6 68.9c-5.3 54.8-32.5 105.1-75.5 139.6h-109.2v16h116.3c30 .1 57.8-15.3 73.6-40.8l56.9-91c1.5-2.4 1.6-5.5.2-8.1zm-203-308.5c9.3 10.4 15 36.2 11.1 64.4l-23.3-4.7zm50 72.3-23.2-4.7c2.8-19.7 1.6-40.5-3.7-57 18.1 15.7 28.1 40.3 26.9 61.7zm-91.5-74.4c-11.1 13.1-20.3 31.6-25.3 50.5l-23.3-4.7c7.7-22.6 27.4-38.8 48.6-45.8zm-9.6 53.8c7.4-27.5 22.8-49 35.4-54.9l-12.2 59.6zm-82.4 299 51.1 81.7h-5.9c-24.4.1-47.2-12.5-60-33.3l-26.9-43-13.6 8.5 26.9 43c6.1 9.7 14 18.1 23.3 24.8h-5.7c-24.4.1-47.2-12.5-60-33.3l-49.3-78.7h65.4c22.3-.1 43 11.4 54.7 30.3zm-63.4-128.4c-2.6 2.4-5 5.1-6.9 8-1.7 3.2-2.9 6.6-3.7 10.2-.6 2.2-1.7 6.3-2.5 7-1.1.4-4.9-.6-7.1-1.3-3.5-1.1-7.2-1.8-10.9-1.9-3.7.2-7.4.8-10.9 1.9-2.3.6-6 1.6-7.1 1.3-.9-.7-2-4.8-2.6-7-.8-3.5-2-7-3.7-10.2-1.9-3-4.2-5.7-6.9-8-1.7-1.7-4.9-4.8-4.9-5.9s3.2-4.3 4.9-5.9c2.6-2.4 5-5.1 6.9-8 1.7-3.2 2.9-6.6 3.7-10.2.6-2.2 1.7-6.3 2.5-7 .2-.1.4-.1.6-.1 2.2.2 4.4.7 6.5 1.3 3.5 1.1 7.2 1.8 10.9 1.9 3.7-.2 7.4-.8 10.9-1.9 2.3-.6 6-1.6 7.1-1.3.9.7 2 4.8 2.6 7 .8 3.5 2 7 3.7 10.2 1.9 3 4.2 5.7 6.9 8 1.7 1.7 4.9 4.8 4.9 5.9s-3.2 4.4-4.9 6zm32.4-192.8c-.7-1.7-1.9-3.2-3.5-4.1l-48.6-27.7 7.3-11 54.9 27.4 42.9 114.3h-15zm275.4 136.8c-7.1-2.5-14.8-2.5-21.9 0-2.3.6-6 1.6-7.1 1.3-.9-.7-2-4.8-2.6-7-.8-3.5-2-7-3.7-10.2-1.9-3-4.2-5.7-6.9-8-1.7-1.7-4.9-4.8-4.9-5.9s3.2-4.3 4.9-5.9c2.6-2.4 5-5.1 6.9-8 1.7-3.2 2.9-6.6 3.7-10.2.6-2.2 1.7-6.3 2.5-7 .2-.1.4-.1.6-.1 2.2.2 4.4.7 6.5 1.3 7.1 2.5 14.8 2.5 21.9 0 2.3-.6 6-1.6 7.1-1.3.9.7 2 4.8 2.6 7 .8 3.5 2 7 3.7 10.2 1.9 3 4.2 5.7 6.9 8 1.7 1.7 4.9 4.8 4.9 5.9s-3.2 4.3-4.9 5.9c-2.6 2.4-5 5.1-6.9 8-1.7 3.2-2.9 6.6-3.7 10.2-.6 2.2-1.7 6.3-2.5 7-1 .4-4.8-.6-7.1-1.2zm21.5 232.8c-9.1 14.7-23.3 25.5-39.9 30.4 30.1-29.9 50.9-67.7 60.1-109.1h29.1z"/><path d="m56 256h16v16h-16z"/><path d="m384 176h16v16h-16z"/></g></svg>