<svg height="512" viewBox="0 0 512 512" width="512" xmlns="http://www.w3.org/2000/svg"><g id="Outline"><path d="m112.024 360h55.976a8 8 0 0 0 8-8c0-33.756-30.38-71.465-71.167-71.976-.281-.014-.56-.024-.833-.024s-.552.01-.833.024c-40.787.511-71.167 38.22-71.167 71.976a8 8 0 0 0 8 8h56.023l.071 24h-80.094v16h80.141l.07 23.894 16-.047-.07-23.847h383.859v-16h-383.906zm-8.024-64c.693.041 5.144 2.9 9.578 15.487a125.034 125.034 0 0 1 6.169 32.513h-31.494a125.034 125.034 0 0 1 6.17-32.513c4.433-12.587 8.884-15.446 9.577-15.487zm55.26 48h-23.486a139.461 139.461 0 0 0 -7.272-38.294c-.527-1.475-1.067-2.861-1.616-4.178 17.014 8.516 29.314 25.634 32.372 42.472zm-78.146-42.472c-.549 1.317-1.089 2.7-1.616 4.178a139.461 139.461 0 0 0 -7.272 38.294h-23.484c3.058-16.838 15.358-33.956 32.372-42.472z"/><path d="m53.657 426.343-11.314 11.314 21.657 21.656v20.687h16v-16h32v16h16v-16h16v-16h-68.687z"/><path d="m213.657 426.343-11.314 11.314 21.657 21.656v20.687h16v-16h32v16h16v-16h16v-16h-68.687z"/><path d="m373.657 426.343-11.314 11.314 21.657 21.656v20.687h16v-16h32v16h16v-16h16v-16h-68.687z"/><path d="m360.624 168a112 112 0 1 0 -209.248 0h-135.376v16h480v-16zm-200.624-40a96 96 0 0 1 192 0 94.889 94.889 0 0 1 -8.71 40h-174.58a94.889 94.889 0 0 1 -8.71-40z"/><path d="m400 64a7.976 7.976 0 0 0 5.657-2.343l16-16-11.314-11.314-10.343 10.344-10.343-10.344-11.314 11.314 16 16a7.976 7.976 0 0 0 5.657 2.343z"/><path d="m456 120a7.976 7.976 0 0 0 5.657-2.343l16-16-11.314-11.314-10.343 10.344-10.343-10.344-11.314 11.314 16 16a7.976 7.976 0 0 0 5.657 2.343z"/><path d="m48 64a7.976 7.976 0 0 0 5.657-2.343l16-16-11.314-11.314-10.343 10.344-10.343-10.344-11.314 11.314 16 16a7.976 7.976 0 0 0 5.657 2.343z"/><path d="m82.343 101.657a8 8 0 0 0 11.314 0l16-16-11.314-11.314-10.343 10.344-10.343-10.344-11.314 11.314z"/><path d="m364.938 232.609a8 8 0 0 0 -4.938 7.391v56h-24v16h72v-16h-20.687l18.344-18.343a8 8 0 0 0 0-11.314l-32-32a8 8 0 0 0 -8.719-1.734zm11.062 26.705 12.686 12.686-12.686 12.686z"/><path d="m208 344h136v16h-136z"/><path d="m56 216h136v16h-136z"/><path d="m168 264h136v16h-136z"/><path d="m232 216h64v16h-64z"/><path d="m416 344h46.065v16h-46.065z"/><path d="m433.935 272h46.065v16h-46.065z"/><path d="m393.935 208h46.065v16h-46.065z"/><path d="m233.935 304h46.065v16h-46.065z"/><path d="m368 344h16v16h-16z"/><path d="m328 200h16v16h-16z"/><path d="m32 256h16v16h-16z"/></g></svg>